<svg xmlns="http://www.w3.org/2000/svg" viewBox="0 0 1369.32 1732"><defs><style>.cls-1{fill:#3d3d3d;}</style></defs><g id="Слой_2" data-name="Слой 2"><g id="logo_transparent" data-name="logo transparent"><path class="cls-1" d="M1165.88,0H203.44C91.08,0,0,82.63,0,184.56V1547.44C0,1649.37,91.08,1732,203.44,1732h962.44c112.36,0,203.44-82.63,203.44-184.56V184.56C1369.32,82.63,1278.24,0,1165.88,0ZM986.3,128.52c20.27,0,40.46-.15,60.72-.39,45.07,166.8,72.15,292.19,108.61,401.31,4.93-125.79,8.61-258.54,7.59-402.87,23.94-.39,48-.79,72.14-1.33v643.4c-25.9,11.35-50.7,21-74.49,29.12-44.21-108-72-217.29-101.95-352.55-6.5,143-19.49,267.62-30.76,384.72a576.93,576.93,0,0,1-74,5.08l-.06.47v-.08l-.15-.39h.21C978.05,645.63,1005.61,433,986.3,128.52Zm-574.88,904c-1.88,17.21-3.68,34.67-5.55,52.44a534.64,534.64,0,0,0-78.33,9.94c1.57-18.55,3.13-37,4.85-55,1.57-17.61,2.43-33.19,2.43-47s-2.66-24.34-8.22-31.31c-5.55-7.12-16-9.16-32.08-5.4-16.2,3.76-28.64,11.82-36.85,22.85-8.22,11.28-14.09,24.9-17.06,40.86a381.79,381.79,0,0,0-6.1,53.07c-4.93,92.44-9.39,188.72-11.82,291.25-.55,25.68.39,46.89,3,63.33s7.36,28.88,14.48,36.71,16.9,11.27,29.26,9.78c14.32-1.72,24.42-8.45,30.21-20.58s9.54-27.71,11.19-46.65,2.66-39.53,3.13-61.84c.54-22.7,1.25-44.77,2.11-66.53a730.88,730.88,0,0,1,77.78-10.33c-.71,19.49-1.18,39.52-1.41,60-.55,45.32-3.44,88.06-9.39,126.73s-17.29,70.44-35.06,93.53c-17.6,23.25-43.74,34.52-77.93,34.29v.39l.08.08c-35.37,0-63.3-11.82-83.18-31.31-20-19.65-33.88-43.84-41.7-74.44-8.06-30.53-12.21-65.44-12.21-106.84V1142.94c0-43.52,4.85-84,15.18-120.54s28.64-68.8,53.91-94.48c25.12-25.67,59.16-43.83,98.2-51.74,36.78-7.12,62.6-2.66,79.74,9.55s27.23,31.31,31.37,56.44C415.57,967.45,415.41,997.27,411.42,1032.5Zm49.3-460c-.86,32.48-6.5,60.19-16,84.22S420,698.9,399,712.83s-49.76,21.6-89.51,26.3l.21.11.26,0-.16.08-.1,0c-41.05,4.82-75.85,4.09-102-7.55-26.22-11.42-45.93-30.76-57.28-59.48S133.1,608,133.1,566.54V338.76c0-43.52,5.4-81.63,14-113.73,8.77-32.09,23.24-56.51,42.41-73.73,19.41-17.3,45.23-26.06,80.6-26.06,33.33,0,61.42,7.9,84.82,24.42,23.24,16.51,43.11,40.31,58,70.13a348.11,348.11,0,0,1,31.61,100q4.23,26.42,7.2,52c-29.66-3.76-60.25-6.74-92.18-9-1.87-17.29-4.14-34.91-6.65-52.52A357.36,357.36,0,0,0,343,262.45c-4-14.64-10.33-26.61-18.55-35.62-8.37-9-20.58-13.85-36.85-14.48-16.43-.54-27.78,3.76-34.35,12.61s-10.25,21-10.8,36a370.1,370.1,0,0,0,1.41,50.88c7.67,89.31,10.64,175.64,10.64,261.51,0,21.6,1.72,39.06,4.93,52.36,3.36,13.54,9.62,23.09,18.54,29.12s21.13,8.06,36.31,7c17.45-1.34,29.5-5.64,36.85-14.09q11-12.33,14.48-32.25a285.19,285.19,0,0,0,3.68-44.85c.15-16.91.15-33.74,0-50.88,32.31,1.49,62.83,4.54,92,8.45C461.27,543,461.27,557.85,460.72,572.49Zm88.1-446.63c29.74,114.36,45.07,211.89,50.86,299.55,30.6,6,60.25,12.13,89.44,17.61-3.13-91.5-15.41-194.66-42.33-316.53,29.19,0,58.53.39,87.71.39,53.68,304.09,29.74,495.94-.7,671.27-23.63-7.2-47.18-14.95-71-22.7,13.3-78.43,24.33-159,26.6-250.63C661.11,518,632.31,511,602.27,504c.31,88.6-8.61,168-20.66,246.63-24.76-6.79-50.23-12.81-76.79-17.58l-.05.05V733l-.09,0h.09c22.92-176.87,28.62-352.26-43.36-607.71C490.61,125.47,519.79,125.71,548.82,125.86Zm107.44,1438c-25.36-133.77-34.75-245-34.59-342.76-28-5.24-55.55-9.47-83.41-12.52-3,101.36,2.11,217,21.44,354.89H473.78l.4-.16c-30-306.28-1.26-509.71,26.13-690.36a695.93,695.93,0,0,1,73.47,14c-12.44,73.57-24.33,150.52-30.9,237.48,27.15,3.91,54,9.31,81.29,15.65,4.62-84,16-158.5,28.41-230.43,23.39,7.43,46.63,15.1,70.26,22.7-28.71,170.79-45.3,350,20,632.05C714.08,1564.2,685.05,1564,656.26,1563.81Zm163.69-.24v.08c-71.21-268.47-59.7-443.88-32.94-616,24.72,6.57,50.15,12.36,76.84,17C841,1139.73,835.29,1312.87,907,1564.36,877.93,1564.2,848.9,1563.81,820,1563.57ZM890,835.4a692,692,0,0,1-76.6-13.62h-.15v0h0c30.91-175.93,59-372,14.78-677.84h89.36C948.27,450.38,918.54,654.44,890,835.4Zm345.46,728.88h-58c-53.68-128-119-251.8-165.34-366.86,2.74,113.41,16.36,231.76,48.67,366.31-24.72,0-49.21-.39-73.78-.55l-.16-.15h-.08c-65-237.17-63.69-412-45.46-591.74,20,1.33,40.77,1.64,62.44,1.09,32.63,104,81.46,210.09,136.39,324.44-5.17-115.22-4.46-227.69-1.1-341.66a991.38,991.38,0,0,0,96.4-26.3Z"/></g></g></svg>