<svg xmlns="http://www.w3.org/2000/svg" xmlns:xlink="http://www.w3.org/1999/xlink" viewBox="0 0 1924 1940.84"><defs><style>.cls-1{fill:#fff9f6;}.cls-2{fill:none;clip-path:url(#clip-path);}.cls-3{clip-path:url(#clip-path-2);}.cls-4{fill:#988621;}</style><clipPath id="clip-path"><circle class="cls-1" cx="952.25" cy="952.25" r="952.25"/></clipPath><clipPath id="clip-path-2" transform="translate(19.51)"><circle class="cls-2" cx="952.25" cy="952.25" r="952.25"/></clipPath></defs><g id="Слой_2" data-name="Слой 2"><g id="inst_3" data-name="inst 3"><circle class="cls-1" cx="971.75" cy="952.25" r="952.25"/><g class="cls-3"><path class="cls-4" d="M1569.2,1723.38l-10.35,7.72c-2.26-3.46-4.48-6.37-6.19-9.57q-20.73-38.58-41.27-77.27c-5.35-10.08-10.41-20.32-15.67-30.46-33.63-64.93-63.26-131.71-91.88-199-7.48-17.58-15.33-35-21.66-53-2.81-8-7.5-13.46-13.44-18.64-14.78-12.89-30.87-24-47.28-34.6-14.75-9.55-29.7-18.78-44.34-28.48-20-13.24-38.78-28.07-55.57-45.29-10.93-11.21-20.84-23.21-27.8-37.37-5.79-11.78-9.49-24.1-9.11-37.38a47.82,47.82,0,0,1,7.16-24.36c5-8.06,12-13.32,21.7-14.33a11.63,11.63,0,0,0,2.21-.81c-1.24-2.27-2.36-4.37-3.52-6.44q-26.67-47.34-53.33-94.7c-1.5-2.68-2.91-5.42-4.19-8.21a9.4,9.4,0,0,1,.62-9.45c3.36-5.09,6.74-10.19,10.48-15A215.64,215.64,0,0,1,1206.86,947q34.23-25.69,69.78-49.6c20.07-13.5,41.75-24.35,64.11-33.54,7.87-3.24,10.93-7.76,10-15.94-.37-.26-.83-.88-1.39-1-13.95-2.39-18.83-17.23-15.29-29.49a90.61,90.61,0,0,1,5.09-13.52c3.52-7.44,9.78-11.64,17.67-13.51,1.48-.36,3-.61,5.11-1,1.51-6.72,3-13.52,4.58-20.3a39.85,39.85,0,0,1,2.06-6.91c1.6-3.67,3.56-4.72,9.62-5.56,1.1,11.71-2.45,22.88-3.68,34.63,2.65,1.45,5.35,2.82,8,4.35,13.62,8,16.18,22.39,6.18,34.64a43.23,43.23,0,0,1-19,13.76c-5.05,1.79-7,4.64-6.46,10.25,1.69-.4,3.32-.64,4.85-1.16,8.1-2.77,16-6.12,24.31-8.26s16.66-3.18,25.05-4.35c1.4-.2,3.33,1.07,4.51,2.19,3.8,3.64,7.49,7.43,11,11.34,25.77,28.63,48.44,59.67,70,91.48,22.19,32.7,43.69,65.87,65.49,98.83,1.19,1.79,2.43,3.54,4.12,6,1-2.22,1.56-3.78,2.39-5.17,2.57-4.31,5-8.71,8-12.78,1.2-1.66,3.38-3.51,5.24-3.65,5.94-.47,10.79-3.29,15.93-5.75a14.22,14.22,0,0,1,7.05-1c21.63,1.86,40.28,10.3,55.28,26.09,9.53,10,14.52,22.35,16.73,35.88.42,2.56.73,5.14,1.1,7.75,5-.86,9.69-2.12,14.39-2.39,14.1-.79,27.58,2.25,40.31,8.11,15.33,7,22.09,19.72,19.45,36.47-1,6-3.15,11.84-4.87,17.72-.54,1.85-1.37,3.61-2.36,6.19,2.26,0,3.88.06,5.5,0,16.92-.74,30.14,6.57,40.79,19.08,5.87,6.89,6.89,14.94,4.57,23.57-2.53,9.36-7.65,17.29-14,24.33-5.43,6-11.48,11.46-17.36,17-2.52,2.4-5.29,4.52-9,7.64,2.9.73,4.62,1.3,6.39,1.6a47.19,47.19,0,0,1,23.88,11.83c12,10.75,14,24.92,5.31,38.55a75,75,0,0,1-21.12,21.5c-13.94,9.55-28.26,18.54-42.48,27.68-12.37,8-25,15.57-37.19,23.76a113.44,113.44,0,0,0-30.25,29c-10.51,15-14.41,31.5-9.91,49.4,2.56,10.2,5.32,20.48,9.37,30.15,13.32,31.78,27.27,63.31,41,94.93.87,2,1.79,4,2.84,5.94,1.3,2.41,1.22,4.49-.7,6.6-2.34,2.58-4.49,5.35-7.2,8.62-1.2-1.91-2.22-3.23-2.93-4.7-18.82-38.73-36.32-78.05-51.39-118.4a245.68,245.68,0,0,1-9.37-32.88c-3.93-17.86,0-34.44,10.11-49.59a119.73,119.73,0,0,1,35.16-34.23c17.15-11.08,34.67-21.58,51.89-32.56,9.62-6.13,19.22-12.35,28.33-19.21a107.41,107.41,0,0,0,15.13-14.58,28.56,28.56,0,0,0,7.35-18c.31-6.47-1.93-10.41-8-11.94-14.76-3.7-29.2-2.94-42.49,5.37-12.47,7.79-24.7,16-37.27,23.58-5.42,3.28-9.36,2.43-13.18-1.36-2.76-2.75-3-4.58-.14-7.19a116.92,116.92,0,0,1,11.21-9.16c14-9.92,28.14-19.54,42-29.55,12.3-8.86,24.17-18.29,34.52-29.45,6.17-6.65,11.59-13.81,14.44-22.58,4.07-12.51.07-21-12.67-24.16-14.78-3.71-28.56-1-39.12,10.77-17.44,19.36-38.81,32.73-62.62,42.63a7.84,7.84,0,0,1-1.89.4,1.92,1.92,0,0,1-.64-.13c-1.21-9.31-1.15-9.22,6.2-13.57,10.39-6.14,20.79-12.3,31-18.72a112.18,112.18,0,0,0,27.39-24.49c4.64-5.7,8.11-12,9.39-19.34,1.88-10.77-1.44-19.67-10.33-26a56.93,56.93,0,0,0-13.46-6.74,110.69,110.69,0,0,0-31.58-6.15c-6.18-.34-6.18-.31-8,6a124.57,124.57,0,0,1-28.72,50.5c-8,8.53-18.25,13.56-28.55,18.52a10.14,10.14,0,0,1-3.17.68c-.37,0-.78-.32-1.6-.69-1.27-3.91,1.24-6.35,4-8.49,5.74-4.43,11.56-8.75,17.39-13,11.28-8.34,18.87-19.41,24.28-32.2,10.68-25.25,3.38-47.64-13.33-64.79-12.34-12.68-27.76-19.87-45.44-21.75a54.22,54.22,0,0,0-11.81.1c-7.31.86-8.55,2.67-6.19,9.49,2,5.8,4.68,11.36,7.06,17,1.78,4.25,4.05,8.37,5.23,12.79,6.83,25.53,2.81,49.16-15.45,68.66-19.62,20.94-43.41,35.21-72,41.22-22,4.6-44.06,7.88-66.34,10.27-18.55,2-37.08,4.36-55.66,6-27.08,2.34-54,1.52-80.35-6.06-15.48-4.46-30.21-10.79-43.31-20.36-9.39-6.87-18.56-14-27.78-21.15-1.37-1-2.39-2.56-3.68-3.73-4-3.7-7.93-7.63-12.27-11-7-5.34-13.75-5.51-20.74-.78-6,4.09-10,10.07-7.94,19.29a85.6,85.6,0,0,0,12.17,28.28c7.53,11.44,16.65,21.52,26.49,31,19.42,18.66,41.3,34,63.84,48.62,15.86,10.26,31.86,20.35,47.1,31.46,14.53,10.6,28.22,22.34,42.14,33.75,6.26,5.13,9.93,12.28,12.87,19.56q39.06,96.51,84.27,190.31,37.18,77.14,74.64,154.16C1561.32,1708.12,1565.1,1715.31,1569.2,1723.38Zm-308.59-569.09c-3.25-5.93-6.73-11.74-9.69-17.81-3.57-7.31-2.76-9.64,4.35-13,25.2-12,49.31-26,73.23-40.35,33.67-20.23,65-43.51,92.06-72,11.31-11.93,21.44-25,32.1-37.51,4-4.68,7.69-9.61,11.94-14s6.1-4,9.87,1.06c2,2.65,3.93,5.28,6,7.85,22.27,27.73,44.66,55.32,64.77,84.76,16,23.42,31.14,47.11,40.85,74.48,4.46-4.78,6-10.29,7.12-16.32l-4.68-2.55c-.71-3.13-.86-5.85-1.93-8.15-5.26-11.34-10-23-16.37-33.73-11.1-18.67-23.31-36.69-35-55Q1501.63,959,1464,909c-11.57-15.47-23.57-30.63-35.47-45.84-3.47-4.43-7.29-8.58-10.9-12.79-2.88,3.48-5.07,6.85-8,9.48-9.08,8.27-18.17,16.56-27.73,24.26-8,6.47-16.68,12.15-25.13,18.08a11,11,0,0,0-4.86,7.39c-3,15.29-6.15,30.56-9.4,45.8q-3.9,18.36-8.2,36.63c-.49,2.09-.51,4.72-4.12,6.85,2.08-28.79,8.36-55.9,11.19-84.24-1.79,1-3,1.57-4,2.3-7.83,5.66-15.67,11.31-23.44,17.05a578.21,578.21,0,0,1-75.31,47.13c-23.44,12.3-47.86,22-74.41,25.42a14.83,14.83,0,0,0-2.66,1c1.29,2.41,2.26,4.34,3.33,6.21q30.46,53.13,61,106.26c2,3.42,3.48,7.26,6,10.16A130.07,130.07,0,0,0,1260.61,1154.29Zm87.58-286.8c-3.52,1.44-5.78,2.21-7.9,3.26-15.14,7.48-30.51,14.55-45.31,22.64-27.77,15.19-53.41,33.7-79,52.19-14.83,10.71-28.23,23-41.15,35.84a64.12,64.12,0,0,0-11.55,15.28,12.51,12.51,0,0,0,2.64.31c3-.52,6-1.06,9-1.71,28.4-6.18,54.34-18.38,79.5-32.48,28-15.7,54-34.39,80-53.18,6.3-4.56,10.2-9.38,10.52-17.5C1345.23,884.33,1346.92,876.58,1348.19,867.49Zm7.51,23.84,1.38.72c18.91-12.67,37.72-25.45,53.29-42.77-3.39-.46-6.68-.72-9.62.19-12.32,3.8-24.55,7.88-36.74,12.06a5.77,5.77,0,0,0-3.31,3.5C1358.84,873.75,1357.33,882.55,1355.7,891.33Z" transform="translate(19.51)"/><path class="cls-4" d="M410.88,882.64c1.84,1.22,3.87,2.44,5.76,3.82,18.26,13.36,36.29,27,52.75,42.59a17.22,17.22,0,0,0,5.35,3.71c17.9,6.75,36.28,10.82,55.47,7.76a83.85,83.85,0,0,0,20.13-5.83c18.1-7.9,27.83-22.23,29.71-41.78,1.47-15.2-1.83-29.61-7.69-43.6-20.12,2.25-36.26-4.89-50.2-19q.24,3.13.47,6.27c.6,8.26-.44,16.19-4.31,23.65-4.53,8.72-11.49,12.93-21.41,12.16a59.19,59.19,0,0,1-24.43-7.36,220.56,220.56,0,0,1-25.54-16.19c-33.09-25-61.81-54.67-88.84-86-5.4-6.25-9.7-13.55-13.87-20.74-4-6.91-3.56-14.33-.22-21.54,2.89-6.25,7.53-10.16,14.59-10.77,3.69-.33,7.39-.62,12.69-1.05-3-1.78-4.8-2.83-6.59-3.86-12.7-7.29-22.33-17-25.29-32-.6-3-.88-6.05-1.37-9.51-1.66-.31-3.32-.77-5-.92a96.67,96.67,0,0,0-28.85,1.4,185.52,185.52,0,0,0-50.66,18.17,69.81,69.81,0,0,0-12,8.1c-19.91,16.9-40.18,33.45-59.37,51.15-29.29,27-54.67,57.7-79.34,88.88C63.87,879.47,25.31,929-13.43,978.48a16.33,16.33,0,0,1-5.71,5c-.08-3.19,0-6.38-.27-9.56-.77-9.54,3-16.91,9.06-24.27,42-51.3,83.54-103,125.51-154.38a557.85,557.85,0,0,1,58.4-61.65c18.59-16.74,37.57-33,56.51-49.39,23-19.82,49.46-32.74,79.32-37.81,32.4-5.51,62.52.91,89.15,20.74,5.41,4,10.14,9.08,14.65,14.13,6,6.77,7.39,14.75,4.27,23.38-.37,1-.7,2-1.36,4,19.19,7.58,39.49,11.72,58.44,20.76,1.08-1.54,2.17-2.83,3-4.28,22.58-39.7,45-79.51,67.75-119.1,10.29-17.88,21.32-35.35,32-53,1.59-2.63,2.63-5.72,4.65-7.94,5.78-6.37,5.3-13.48,4.26-21.35-5.58-42.46-12.78-84.65-20-126.85-4.19-24.43-6.94-49.11-10.23-73.69a56.07,56.07,0,0,1-.21-9.87c.38-8.13,2.47-9.63,10.45-7.4a98.75,98.75,0,0,1,12.47,4.2c57.52,24.61,116.61,45.44,173.18,72.29a8.1,8.1,0,0,0,8.54-.34c18.74-11,37.59-21.85,56.39-32.76a17.57,17.57,0,0,0,1.77-1.41c-.11-1.39-.29-2.88-.33-4.38-.21-7.19,4.08-12.3,11.26-12.81,7.81-.57,14.79,1.71,20.28,7.54s4.73,12.88-1.8,17.43c-5,3.45-10.64,4.68-16.29,2.5-4.28-1.65-7.35-.63-10.91,1.67-14.38,9.3-28.93,18.34-43.41,27.49-1.79,1.13-3.5,2.38-6.14,4.19,2.87,1.51,4.91,2.63,7,3.68,20.57,10.45,40.94,21.28,59.89,34.49a205.56,205.56,0,0,1,22.51,18.17c8.33,7.78,7.09,12.07-3.8,15.2-62.93,18.09-124,41.56-185.8,63.11-15.54,5.42-31.16,10.65-46.77,15.86-8.15,2.71-16.44,4.74-25.61,3.82Q542.19,641.76,485.8,737.71l15.89,18.21c8.65,9.93,17.27,19.89,26,29.74a6.41,6.41,0,0,0,3.81,2c10,.89,17.72,6.21,24.6,12.88a106.49,106.49,0,0,1,31.74,60.1c3,17.75,1.54,35-5.6,51.64-11.11,26-33.69,41.15-62,41-8.29-.06-16.57-1.14-26.06-1.84,2.05,2,3.57,3.63,5.18,5.12,14.8,13.78,29.22,27.92,42,43.61,10.88,13.31,20.71,27.29,26.82,43.55,2.74,7.31,4.51,14.77,2.4,22.54a44.71,44.71,0,0,1-3.56,9.16,16.66,16.66,0,0,1-14.83,9.41c-3.92.16-7.86,0-12.82,0,1.26,2.25,2.22,4.06,3.28,5.82,3.88,6.42,7.44,13,8.36,20.59A40.93,40.93,0,0,1,551,1123c-2.78,16-13,23.36-29.13,21.46-13.86-1.64-26-7.77-37.88-14.49-2.46-1.39-4.86-2.89-8.62-5.13.81,3.37,1.32,5.53,1.86,7.68,3.06,12.34-.08,20.61-10.58,27.91-14.73,10.23-29.86,10.83-45,1.28-10-6.31-19.76-13.11-29.45-19.94-27.46-19.34-54.67-39-82.32-58.12a257.91,257.91,0,0,0-48.67-26.15,88.09,88.09,0,0,0-28.07-6.69c-10.69-.68-20.82,1.34-28.94,8.55-10.16,9-20.33,18.17-29.42,28.23-32.79,36.37-65.15,73.13-97.64,109.77-14,15.77-27.87,31.62-41.83,47.42-1.58,1.78-3.33,3.39-5.74,5.84-2.2-6.13-4.29-11.33-5.85-16.68-.37-1.26.64-3.37,1.65-4.52q59.18-67.71,118.52-135.26c11-12.52,22.16-25,33.7-37A150.18,150.18,0,0,1,196,1041.24c10.29-7.74,22.08-10.3,34.87-8.81a128.37,128.37,0,0,1,39.66,11.51c26,12.14,49.62,28.15,72.87,44.75,16.62,11.86,32.93,24.16,49.38,36.26,2.1,1.54,4.24,3,6.17,4.41.8-.4,1.36-.48,1.52-.78,5.27-10.24,14.31-13.8,25.09-13.77,14.09,0,26.18,4.93,35.59,15.74a14.19,14.19,0,0,0,1.95,1.67c.12.1.4,0,.95,0,2.09-3.08,1.14-6.3-.69-9-3.18-4.71-6.4-9.54-10.41-13.5a223.62,223.62,0,0,0-18.46-15.87c-18.75-14.88-37.73-29.47-56.39-44.45-6.66-5.35-12.76-11.41-18.95-17.32-2.5-2.38-4.84-5.13-3.17-9.42,5,1.06,9,3.74,12.94,6.41,4.53,3.08,8.85,6.48,13.23,9.8,17,12.86,34.08,25.57,50.85,38.7,8.62,6.76,16.57,14.36,25,21.41,3.48,2.92,7.33,5.39,10.68,7.82,1-.47,1.25-.51,1.34-.67,6.72-10.91,17.07-13,28.66-11.46a65.39,65.39,0,0,1,35.91,16.56c.82.74,1.59,1.51,2.4,2.25a5.72,5.72,0,0,0,1.15.49c.06-2.91-1.64-4.83-2.89-6.79a214.2,214.2,0,0,0-29.7-36.88q-33.88-33.66-68.45-66.62c-16.49-15.82-33.06-31.53-47.83-49-2.27-2.68-4.67-5.28-6.67-8.15-3.27-4.71-2.74-7.39,1.76-11.85,40.95,33.08,78.66,69.73,116.55,106.08,16.56-15.38,33.12-11.35,50.49-1.22-1.25-1.91-2.45-3.86-3.76-5.73a260.09,260.09,0,0,0-34-39.34c-22.79-21.59-46.12-42.62-69-64.11-11.84-11.12-23.33-22.62-34.78-34.13C404.76,891,405.09,888.11,410.88,882.64Zm334-492a16.55,16.55,0,0,0-1.93-1.36c-54.72-26.15-112.09-46-167.64-70.14a40.64,40.64,0,0,0-4.34-1.4.93.93,0,0,0-.63.15c-.17.1-.28.3-.82,1,11.58,71.19,28.59,141.87,36.28,214.78,75.6-24.8,148.55-54.21,223.8-76.86,4.82-1.45,9.52-3.33,14.27-5a1,1,0,0,0,.49-.42,6.92,6.92,0,0,0,.14-1.45c-4.63-5.15-10.53-9.64-16.6-13.89-20.21-14.15-42-25.45-64-36.65-2.75-1.41-4.79-.92-7.29.5-13.56,7.69-27.21,15.22-40.81,22.83a25.33,25.33,0,0,0-2.76,2.1c7.59,4,15,7.38,21.88,11.6a83.89,83.89,0,0,1,15,11.57c4.7,4.64,3.58,8.25-2.45,11.12-15.06,7.17-30,14.67-45.25,21.36-15.67,6.86-31.64,13-47.59,19.24-7,2.73-14.41,4-22,2.34-6.47-1.44-11.07-4.68-12.47-11.82-2.08-10.55-4.85-21-7-31.49Q606,422.83,599,387c-.47-2.41-.06-5-.06-7.94,7.79.93,14.4,2.58,20.54,6.23a119.77,119.77,0,0,0,15.71,8.22c19.91,8.14,40,15.9,59.92,23.95,2.79,1.13,4.86.73,7.32-.78C715,409,727.6,401.43,740.19,393.82,741.66,392.94,743,391.88,744.89,390.59ZM511.09,806,403.57,721.88c-6.84,1.45-13.84,3.39-21,4.31s-14.45.84-21.67,1.26c-1.59.1-3.16.48-5.75.89,3.64,5.15,6.33,9.71,9.75,13.64,11.09,12.74,22.14,25.55,33.8,37.78,20,21,41.23,40.73,65.47,57,9.15,6.12,18.64,11.68,29.24,14.86,4.77,1.43,9.85,1.94,14.83,2.51,2.81.31,4.58-1.28,4.42-4.36-.21-3.94-.2-7.92-.78-11.81C510.31,827.05,508.37,816.22,511.09,806ZM408.21,702.64c-16-22.57-37.57-33.42-63.18-38.77-1.58,9.06,1.23,15.81,6.83,21.65,10.11,10.53,22.7,16.44,36.89,18.74C394.66,705.22,400.9,705.77,408.21,702.64Zm100.18,344.54c14.93,22.22,34.91,30,52.92,22.93-1.6-11.79-9.48-18.82-19.41-23.2C531.07,1042.15,519.62,1039.51,508.39,1047.18Zm-101.84,86.59c16.83,18.14,43.61,20.19,53.05,3.89-11.78-12.13-26.23-15-42.21-11.66A15.61,15.61,0,0,0,406.55,1133.77Zm71.12-22.87a16.48,16.48,0,0,0,2.26,1.87c11.36,6.26,23.13,11.67,35.71,14.78,6.06,1.5,12.54,1.36,18.84,1.72,1.59.09,3.23-.76,4.77-1.16a7.69,7.69,0,0,0-.2-1.83,8.1,8.1,0,0,0-1.37-2.22c-13.79-14.12-30.3-21.21-50.23-19.11A12.47,12.47,0,0,0,477.67,1110.9Zm89.4-271.14a33.64,33.64,0,0,0-1.73-3.64c-6-9-12.78-17.35-21.24-24.11a59.87,59.87,0,0,0-11.77-7.07,17.54,17.54,0,0,0-7.66-1.32c-4.72.11-6.46,2.32-5.07,6.9,1,3.28,2.44,6.86,4.78,9.21,5.39,5.41,11,10.77,17.34,15C548.92,839.55,557.28,841.46,567.07,839.76Z" transform="translate(19.51)"/><path class="cls-4" d="M519.45,1419.9c24.61,8.21,34.46,18.83,34.37,38.69,2.48.19,5,.43,7.56.57,34.2,2,68.42,3.72,102.6,6,13.78.93,27.47,3.16,41.21,4.68,3.87.42,7.79.45,11.6.65,1,6.12-.82,9.35-6.16,10.31a96.62,96.62,0,0,1-11.81,1c-23.94,1.3-47.84,0-71.75-1.26-29.61-1.57-59.22-3-88.85-4.18a276,276,0,0,0-56.47,3.36,25.71,25.71,0,0,0-9.46,3.42,17.63,17.63,0,0,0,2.59.4c13.21.16,24.8,5.22,35.72,12a44.28,44.28,0,0,1,7.59,6.29c7.47,7.42,11.72,15.94,8.11,26.86a18.37,18.37,0,0,0,11.83,3.78c20.35.16,40.09,4.58,60,7.94,18.84,3.17,37.72,6.1,56.56,9.27a46.28,46.28,0,0,1,16.27,5.5c-1.91,4.63-5.84,4.61-9.36,4.51a202.52,202.52,0,0,1-22.33-1.43c-26.75-3.77-53.45-7.86-80.15-11.9-10.66-1.61-21.32-3.09-32.13-2a57.71,57.71,0,0,0-9.67,1.85c-2.75.77-5.36,2.06-6.15,6a32.83,32.83,0,0,0,4.15.51c15.54-.18,28.1,6.17,38.17,17.66,7,8,8.42,15.63,5.64,28.32,2.25.5,4.49,1.07,6.77,1.51,30.61,5.89,61.26,11.59,91.83,17.7a336.23,336.23,0,0,1,65.33,20.26,114,114,0,0,1,32.38,21.17A48.21,48.21,0,0,1,771,1689.13c2.11,14.89,1.65,29.83.41,44.71-2.33,27.79-5,55.55-7.78,83.31-2.79,28.19-5.82,56.35-8.77,84.53-.2,1.94-.61,3.87-1,6-5.76,1.71-11.29.09-17.47.44.17-3.09.22-5.44.44-7.76,2.33-25.37,4.77-50.73,7-76.1,2.72-30.62,5.63-61.23,7.74-91.9.87-12.64.18-25.43-.42-38.13-.41-8.62-4.64-15.91-10.38-22.28-8.09-9-18.05-15.36-28.94-20.26-22.13-10-45.34-16.69-69-21.56-31.4-6.44-62.93-12.22-94.38-18.46-9.9-2-19.78-4.17-29.51-6.82-18.61-5.07-28.85-17.26-31.23-36.44-1.45-11.68,2.69-20,12.88-25.87,2.25-1.29,4.53-2.53,7.67-4.28l-5.52-2c-8.67-3.11-17.45-5.94-26-9.39a56.94,56.94,0,0,1-19.93-13.75c-7.8-8.19-9.18-16.9-4.56-27.25,5-11.33,14.36-17.42,25.71-20.93,4.77-1.47,9.67-2.52,15.39-4-2.53-2.51-4.52-4.45-6.47-6.43-8.21-8.34-9.46-15.83-4.33-26.32,4.4-9,11.89-14.47,20.88-18.18a146.28,146.28,0,0,1,37.58-9.45c26.07-3.32,52.17-2.35,78.28-.76,2.08.13,4.17,0,7.59,0l-5.92-4.66c-9.34-7.41-18-15.46-24.17-25.83-14.58-24.58-13-49.12,1.1-73.1,15.76-26.85,40.31-41.58,70-48.32a96,96,0,0,1,34.71-1.58c7.53,1,14.46,3.49,20.45,8.41a8.47,8.47,0,0,0,5.2,1.83c14.92-.52,29.82-1.35,44.74-1.9,6.57-.24,13.15,0,20.43,0,21.81-74.38,43.94-148.3,64.62-223a17.11,17.11,0,0,0-2.94-1.33c-29.15-7.11-49.66-25.32-64.55-50.53-13.41-22.69-20-47.66-23.7-73.51-6-42.72-2.53-85,6-127.05,4.46-22,10.07-43.64,18.15-64.61,1.82-4.7,3.72-9.37,5.31-14.15.81-2.43,2.23-3.86,4.65-3.89a55.35,55.35,0,0,1,9.81.54C873.15,708,935.19,720.14,996,738c21.71,6.37,43.33,13,64,22.31,5.19,2.34,10.14,5.24,15.15,8,3.23,1.75,4.1,4.15,3.72,8.12-2,20.79-9.1,40.22-15.58,59.78-17.13,51.7-42.84,98.57-79.31,139.26-14.91,16.63-31.8,30.89-51.31,41.91-17.11,9.67-35.25,15.72-55.12,15.7a22.11,22.11,0,0,0-2.82.33L808.33,1256l56.79,30.14c1-1.61,1.81-2.84,2.51-4.16,4.39-8.28,11.3-12.56,20.62-13.17a96.61,96.61,0,0,1,46.23,8.33q39.19,17.43,60.09,55c15.12,27.15,21.78,56.34,22.59,87.11.19,7,0,14.06.19,21.08.33,10.53.6,21.07,1.38,31.57,1.56,21.31.8,42.56-.6,63.84-3,45.41-9.73,90.38-15.84,135.42-8.24,60.71-17,121.34-25.3,182-1.25,9.11-1,18.41-1.73,27.6-1.32,17.52-3.29,35-7,52.17-1.32,6.09-3.91,8.24-9.32,7.82a8.57,8.57,0,0,1-3.16-.8c-2.63-1.34-5.17-2.84-8.47-4.67.25-1.83.46-4.17.9-6.47,3.17-16.37,6.77-32.68,9.47-49.13,2.31-14.06,3.31-28.33,5.4-42.43q9.47-63.87,19.34-127.66c8.45-54.92,16.93-109.83,22.3-165.15,3.26-33.49,4.34-67,1.53-100.66-.52-6.12-.78-12.29-.74-18.43.16-28.68-8.33-54.89-22.24-79.65a112.55,112.55,0,0,0-22.18-28.44c-1.61-1.47-3.3-2.85-5.56-4.78-7.86,6.64-16.55,11.58-26.89,12.67s-20-1.56-30.42-3.8c1.56,1.86,3.12,3.74,4.7,5.59,10.82,12.67,7.2,29.94-8.44,36a82.28,82.28,0,0,1-25.61,5.4c-47.48,2.19-94.87,1.76-141.76-7.5-10.38-2.05-20.5-5.09-29.8-10.22a84.14,84.14,0,0,1-13-8.83c-7.59-6.28-9.51-14.44-6.61-23.77,2.62-8.48,7.89-15.1,14.61-20.69l6.58-5.42c-3.37-.28-5.21-.57-7.06-.57-14.09,0-26-5.71-36.65-14.39-2.64-2.16-4.41-5.36-6.89-8.47a46.44,46.44,0,0,0-4.69,1.43,99.89,99.89,0,0,0-28.42,17.62c-19.5,17.27-24.69,40.82-13.89,64.51,8,17.55,21.16,30.49,37.24,40.75,10.13,6.47,20.56,11.09,33,11.27,20.49.31,40.44,5.33,60.58,8.65,2.38.39,5.68,0,6,3.82.26,3.57-2.86,7.24-6.61,7.78a29.49,29.49,0,0,1-4.61.17c-22.39-.38-44.74-1.36-67.08-3.35-36.52-3.25-73.09-6.5-109.83-4.83-9,.41-17.92,1.7-26.87,2.64A25.73,25.73,0,0,0,519.45,1419.9Zm349-397.65c6.49-.86,13.08-1.29,19.46-2.67,17.2-3.72,32.63-11.55,46.91-21.66,19.66-13.94,36.62-30.7,51.57-49.57,17.39-22,31.59-45.87,44.16-70.84,15.46-30.72,26.9-62.91,35.6-96.12,1.63-6.2.84-8-4.85-11.09-16.32-8.77-33.67-15-51.25-20.6-44-14-88.91-24.2-134.18-33-19.6-3.79-39.31-7-59-10.41-6.48-1.12-6.94-.75-8.89,5.49-1.12,3.55-2,7.17-3.2,10.72-13.89,42.58-23,86-24.1,131-.65,26.88,1,53.54,7.36,79.76,5.16,21.3,12.93,41.53,26.4,59.09S844.87,1022,868.43,1022.25Zm24.43,324.14.65-1.62c-1.53-1.8-3-3.63-4.6-5.38-9-10-18-19.91-22.92-32.7-.85-2.23-2.42-2.74-4.54-3-18.07-2.32-36.17-4.47-54.18-7.19-25-3.76-49.85-8-74.77-12-2.56-.42-5.09-1-6.54-1.28-6,5.7-11.09,10.85-16.56,15.51-4,3.41-8.66,6-12.82,9.24-3.22,2.51-6.12,5.43-9.67,8.62,2.38,2.73,3.94,5.17,6.1,6.83a76.27,76.27,0,0,0,11,7.12c11.77,6.21,24.51,9.6,37.49,12.06,44.32,8.44,89.05,8.67,133.88,6.16C881.25,1348.43,887.05,1347.2,892.86,1346.39Zm56.79-37.68c-18.52-17.22-57.59-26.77-73.44-19.62.71,1.49,1.14,3.2,2.15,4.43,13.86,16.76,31.7,25,53.46,24.5C939,1317.84,944.75,1314.52,949.65,1308.71Zm-406.4,149.22c.58-5.17-1.8-9.12-4.8-12.59a47.12,47.12,0,0,0-21.58-14.46,38.57,38.57,0,0,0-21.45-.48c-7.27,1.87-8.21,5.18-4,10.07,1.29,1.5,2.47,3.09,3.83,4.51C508.57,1458.89,525.22,1460.52,543.25,1457.93Zm7.49,139.39c1.84-6.47.41-11.63-2.57-16.37a47.44,47.44,0,0,0-21.63-18.55c-5.32-2.3-11-4-17.83-2.48.89,12.48,4.79,22.85,15.6,29.64C532.32,1594.59,541.57,1595.15,550.74,1597.32Zm-90.84-106c1.73,2.81,2.52,5,4,6.34,4.45,4.17,8.76,8.69,13.86,11.92,11.12,7.07,23.3,12.09,35.82,16.21a25.44,25.44,0,0,0,4,.63c1.2-5-.29-9-3.09-12.5-12.05-15.26-28.22-22.33-47.27-23.49C465.16,1490.26,463.08,1490.86,459.9,1491.27Zm199-225.72a39.61,39.61,0,0,0,2.27,3.36c10.3,12.27,35.19,18.78,50.28,13.2.41-.16.83-.28,1.23-.45,6.7-3,7.72-7.47,1.83-11.65a39.91,39.91,0,0,0-14.28-6.17c-12.81-2.79-25.74-1.7-38.56.62A16.25,16.25,0,0,0,658.92,1265.55Z" transform="translate(19.51)"/><path class="cls-4" d="M1220.39,500.49c-15.56,12-32.35,20.09-51.28,23.66-10.68,2-17.48,9-21.09,18.76s.35,16.25,10.56,18.4a38.46,38.46,0,0,0,19.57-.85q19.44-6.12,38.51-13.38c10-3.82,19.8-8.42,29.69-12.65a27.44,27.44,0,0,1,3.74-1.27c2-.54,4.2-1.93,6,.55,1.45,2,1.34,6-.64,8a23.24,23.24,0,0,1-5.88,4.14c-7.87,3.9-15.73,7.84-23.79,11.31-10.69,4.61-16.81,13.14-20.74,23.48-2.22,5.8-.08,9.62,5.82,11.95,5.07,2,10.28,1.93,15.56.85,11.33-2.33,21.54-7.47,31.77-12.55,12.58-6.25,25.08-12.67,37.73-18.79a126.56,126.56,0,0,1,14-5.51c34.14-11.8,68.89-18.27,105.37-15.76,47.4,3.27,94.3,9.87,141.14,17.39,84.22,13.52,166.94,33.58,248.86,57.09,21.29,6.12,42.27,13.35,63.35,20.21a47.23,47.23,0,0,1,9.53,4.38c3.77,2.24,6,5.61,5.61,10.41-3.93,1.89-7.43.2-10.88-.93-17.53-5.72-34.86-12.09-52.56-17.19-82.95-23.9-166.73-44.22-252-58-39.67-6.43-79.38-12.49-119.4-16.23-20.57-1.92-41.2-3-61.85-1.77a113.86,113.86,0,0,0-21.47,3.07c-22.1,5.69-44.16,11.54-66,18.1-8.72,2.61-16.85,7.23-25.87,11.21,4.22,16.26,8.26,31.85,12.34,47.54A283.84,283.84,0,0,1,1338.83,624c13.73-1.74,27.17.11,40.26,4.51a43,43,0,0,1,4.89,2c11.39,5.43,14.17,14.47,7.68,25.44-4.51,7.63-11.37,12.85-19.11,16.68-10.23,5.06-20.55,10-31.17,14.14C1307,700,1271.33,708.3,1235,713.57a99.52,99.52,0,0,1-24.93.34c-14.73-1.62-19.59-11-13-24.32a39.52,39.52,0,0,1,8.43-11.64,106.79,106.79,0,0,1,17.75-13.49,256.15,256.15,0,0,1,46.14-20.88q2.48-.86,4.91-1.86c.36-.15.6-.6,1.22-1.27-4-14.74-8.11-29.72-12.41-45.47-2.23.83-4,1.43-5.69,2.12-7.94,3.17-15.76,6.7-23.85,9.42a43.85,43.85,0,0,1-13.59,2c-11,.07-18.65-6.56-20.67-17.45a34.57,34.57,0,0,1,1.19-18.2c.49-1.39.84-2.83,1.6-5.38-3,.84-5.23,1.56-7.46,2-8.13,1.74-16.24,3.66-24.44,5a33,33,0,0,1-10.47-.55c-9.55-1.61-15.2-7.44-16.92-16.91-1.79-9.82-1-19.26,4.91-27.77.59-.86,1-1.84,1.91-3.47-2.84-.55-5.14-1-7.43-1.43-21-4.22-28.95-17-23.2-37.51,2.82-10,6.66-19.57,15.67-26.9-28.72-22.67-26.37-50.36-12.22-80.56-2.79-.08-5.07-.22-7.35-.21-17.49.12-34.61-2-51.08-8.24a90.87,90.87,0,0,1-36.51-25.16c-10.47-11.83-16.15-25.48-16.31-41.33-.2-19.59,2.68-38.52,11.92-56.11,1.53-2.91,3.11-5.82,4.37-8.86,4.65-11.19,13.43-18.24,23.75-23.64,17.78-9.3,36.75-15.61,55.89-21.39,32.57-9.84,65.14-19.72,98.59-26.3,4.08-.8,8.21-1.41,12.33-2a4.88,4.88,0,0,1,4,1.09c-11.57,2.8-23.2,5.4-34.71,8.45-11.66,3.08-23.27,6.44-34.8,10s-23,7.37-34.41,11.33-22.77,8.07-34,12.42-22.27,8.94-32.72,14.84l.2,1.39a54.91,54.91,0,0,0,6.79,0c17-2.15,34-4.17,50.93-6.66A417.77,417.77,0,0,0,1209.7,190.6c10.45-4.36,20.19-10.58,29.91-16.5,4.38-2.66,8.55-6.13,10.7-11.85l-10.72,2.56c-.3-2.6-.52-4.4-.77-6.53-1.43,0-2.49,0-3.55,0-13.75.38-23.07-7.26-30.82-17.38-3.09-4.05-2.26-7.14,2.07-10,5.54-3.62,11.44-4.55,17.44-1.24s11.74,6.82,18.14,10.56c.7-1.61,1.52-3.27,2.17-5,3.39-8.92,7.9-17.13,14.66-24a29.81,29.81,0,0,1,14-8.33c8.29-2.08,11.94,1.4,9.95,9.69-3.08,12.85-9.62,24-17.78,34.21-1.09,1.36-2.22,2.7-3.31,4.07-.11.13,0,.4-.14,1.18l4.75.8a83.1,83.1,0,0,1,9.08,1.53c2.74.77,3.31,3,1.31,5a24.47,24.47,0,0,1-5.82,4.16,70.71,70.71,0,0,1-7.32,3c3.25,2,5.68,3.55,8.19,5,13,7.45,25.54,15.55,36.24,26.12a108.65,108.65,0,0,1,12.43,14.43c12.86,18.17,13.45,37.56,4.5,57.45-2.59,5.77-6,11.14-9.31,17.06,1.77.73,3.32,1.41,4.91,2,19.6,7.36,36.64,18.77,52,32.86a27.26,27.26,0,0,1,3.58,3.86c8,10.77,18.9,17.47,31,22.61,29.22,12.41,59.53,21.14,90.62,27.27,29.94,5.91,59.9,11.66,90.23,15.21,25.94,3,51.93,5.75,77.89,8.61q33.06,3.66,66.11,7.34c9,1,17.9,1.94,26.81,3.18,5.26.72,6.56,2.59,5.74,6.79-.6,3-2.42,4.69-5.47,4.6-2.39-.07-4.77-.58-7.17-.82-40.86-4-81.71-8-122.58-11.87-54-5.1-107.82-11.61-160.8-23.67a408.35,408.35,0,0,1-64-20.05,90.16,90.16,0,0,1-34.26-24.88c-12.14-13.91-25-27.24-41.28-36.47-5-2.8-10.2-5.09-15.34-7.58-2.4-1.16-4.54-1.16-6.42,1.2-11.44,14.42-25.25,26.23-40.39,36.55-.48.33-.71,1-1.24,1.81,2.87,2.26,6.17,2.23,9.35,2.46,4.6.34,9.24.29,13.81.85,9.38,1.16,12.12,6.78,6.94,14.72a74.45,74.45,0,0,1-9.64,11.63c-19.67,19.79-41.43,37.07-67.42,47.51-16.78,6.74-34.75,8.27-51.17-2.37-4.46-2.89-7.9-7.51-11.4-11.67-2.81-3.34-4.87-7.3-7.52-10.8a86.08,86.08,0,0,0-6.28-6.66c-2.37,2.56-4.59,4.36-6,6.64-10.71,16.67-12.2,43.91,4.76,61.79,10.77,11.36,24.68,13.45,39.41,12.37,9.15-.67,17.26-4.88,25.63-8.15,4.39-1.72,4.39-1.72,8.82-.23-.07,2.94-2.65,3.67-4.5,5-13.31,9.22-28.31,11.47-44,10.15-5.66-.48-11.24-1.85-16.86-2.83-1.49-.25-3-.53-4.91-.89-6.66,10.89-11.49,22.29-11.4,35.18.06,8.67,5,15.24,13.43,17.46a43,43,0,0,0,14.92,1c10.38-1,20-4.72,29.28-9.55,6-3.15,12.21-6.05,18-9.56C1213,496.7,1216.43,496.21,1220.39,500.49Zm67.87-217.3c5.08.42,9,1,12.91,1a6.07,6.07,0,0,0,4.39-2c9.06-12.85,15-26.81,14-42.95-1-15.35-9-27.31-19.08-38.06a160.06,160.06,0,0,0-31.13-25.24c-4.95-3.15-9.93-6.28-15-9.48-1.09,1.21-1.87,2-2.51,2.82a72.87,72.87,0,0,1-22.74,19.67,198.68,198.68,0,0,1-38.89,17.7c-18.61,5.91-37.26,11.77-56.13,16.75-28.71,7.58-57.85,12.83-87.66,13.32-3,.05-4.2,1.38-5.47,3.68a118.49,118.49,0,0,0-14.7,62.67A57.49,57.49,0,0,0,1039,337.56c15.14,19.14,35.42,29,59,32.62,15.53,2.41,31.11,1.46,46.65-.05a244.64,244.64,0,0,0,95.45-29.9,39.21,39.21,0,0,0,4.2-3.13l-4.93-5.69a33.65,33.65,0,0,0-3.12,1.45c-24.67,15.56-51.78,23.72-80.67,26-21.29,1.7-42.63,1.91-63.54-3.29-20.65-5.13-37-16.45-48.4-34.83-8.56-13.84-8.65-27.7-1.32-41.89,8.42-16.28,23.59-22.24,40.38-14.9,8.79,3.84,16.87,9.31,25.21,14.13,5.12,3,10,6.48,15.25,9.09,17.2,8.52,35,10,52.83,2.41a150.32,150.32,0,0,0,22.59-12c13.92-9,25.31-21,36.33-33.27,5.72-6.37,11.29-12.88,17.11-19.15a45.08,45.08,0,0,1,23.47-13.59c10.77-2.58,18.12.37,23.93,11.88,3.86,7.66,4.45,16,3.15,24.45-1.59,10.34-5.51,19.83-10.79,28.81C1290.74,278.58,1289.76,280.48,1288.26,283.19Zm-8.94,368.67a16.7,16.7,0,0,0-2.84.28c-20.6,7-40.58,15.52-59.17,26.92-5,3.05-9.37,7.22-13.5,11.4-3.4,3.44-2.76,6.76,1.63,9a25.73,25.73,0,0,0,10.6,3.08,204.58,204.58,0,0,0,26.9-.93c26-3,51.28-9.64,76.3-17.16a276.62,276.62,0,0,0,54.52-22.85,73.4,73.4,0,0,0,11.31-7.85c4.07-3.41,4-5.79-.38-8.86a40.9,40.9,0,0,0-10-4.92,95.71,95.71,0,0,0-45.44-4.16c-11.51,1.64-22.93,3.88-34.37,5.92-2.07.37-4.08,1.07-6.7,1.78,1.83,4.77,3.64,8.75,4.85,12.91a23.41,23.41,0,0,1,.84,8.33c-.22,2.64-2.43,4.11-5,4.42s-3.14-1.9-3.89-3.7C1283.13,661,1281.29,656.57,1279.32,651.86ZM1221,401.59c3.61-2.22,6.39-3.9,9.14-5.63a246.9,246.9,0,0,0,45.2-37c3.29-3.37,6.89-6.77,7.24-12.39-1.39-.27-2.62-.59-3.86-.75-7.59-1-15.16-2.12-22.78-2.81a14.54,14.54,0,0,0-6.75,1.47c-13.41,6-26.75,12.07-40.09,18.17-1.3.59-2.48,1.41-3.61,2.05,2.83,6.24,5.57,11.95,8,17.79C1216.07,388.51,1218.33,394.66,1221,401.59Zm-9.72,4.05c-4-13.54-7.68-26.28-11.46-39.22L1155.19,377c9.17,6.13,14.07,14.65,19.51,22.78,5.57,8.34,13.73,11.16,23.32,9.67C1202.27,408.78,1206.35,407.09,1211.3,405.64Zm86.28-112.84c-4-.64-6.8-1-9.53-1.55-4.11-.88-6.78.72-9.62,3.8-7.54,8.18-15.57,15.91-23.41,23.82-1.17,1.19-2.32,2.41-3.82,3.95l5.85,6.6A159.94,159.94,0,0,0,1297.58,292.8ZM1254.92,143c7.14-7,12.65-19,11.8-25.83A75.21,75.21,0,0,0,1254.92,143Z" transform="translate(19.51)"/><path class="cls-4" d="M868.46,804.32c35.84,3.42,71.7,6.52,107.49,10.41,13,1.42,25.93,4.5,38.8,7.24,8.9,1.9,12.74,7.2,11.39,16.27a144.5,144.5,0,0,1-5.32,21.69c-5.3,16.84-13.4,32.47-22.18,47.68-14.44,25-31.63,48-52.54,68.1-17.05,16.35-37,27.33-60.38,31.55-19.58,3.52-36.43-1.19-50.47-15.72a105.22,105.22,0,0,1-22.36-35.37c-6.88-17.56-9.74-36-11.4-54.61-1.69-18.85-1.73-37.73,1-56.52.84-5.86,1.94-11.69,3.2-17.47,2.21-10.12,8.5-16.48,18.3-19.74,10.64-3.54,21.6-3.47,32.58-3.33,4,0,7.9.43,11.84.66Z" transform="translate(19.51)"/></g></g></g></svg>