<svg xmlns="http://www.w3.org/2000/svg" viewBox="0 0 1903.32 1838.48"><defs><style>.cls-1{fill:#f1d2d3;}</style></defs><g id="Слой_2" data-name="Слой 2"><g id="inst_2" data-name="inst 2"><path class="cls-1" d="M1588.71,1621c-3.49,2.6-6.6,4.91-10.35,7.72-2.26-3.46-4.48-6.38-6.19-9.57q-20.73-38.58-41.27-77.27c-5.35-10.09-10.42-20.33-15.67-30.47-33.63-64.93-63.26-131.71-91.88-199-7.48-17.58-15.33-35-21.66-53-2.81-8-7.5-13.45-13.45-18.63-14.77-12.89-30.86-24-47.27-34.6-14.75-9.55-29.7-18.79-44.34-28.48-20-13.25-38.78-28.08-55.57-45.29-10.93-11.21-20.84-23.21-27.8-37.38-5.79-11.78-9.49-24.09-9.11-37.37a47.7,47.7,0,0,1,7.16-24.36c5-8.07,12-13.32,21.7-14.34a11.67,11.67,0,0,0,2.21-.8c-1.24-2.28-2.36-4.37-3.52-6.44Q1205,964.39,1178.37,917q-2.26-4-4.19-8.21a9.4,9.4,0,0,1,.62-9.46c3.36-5.08,6.73-10.18,10.48-15a215.69,215.69,0,0,1,41.09-39.74q34.23-25.7,69.78-49.59c20.07-13.5,41.75-24.36,64.11-33.55,7.87-3.23,10.93-7.76,10-15.93-.37-.27-.84-.88-1.39-1-13.95-2.39-18.83-17.23-15.29-29.49a90.2,90.2,0,0,1,5.09-13.52c3.52-7.44,9.78-11.64,17.67-13.52,1.48-.35,3-.6,5.11-1,1.51-6.72,3-13.52,4.58-20.3a39.1,39.1,0,0,1,2.06-6.92c1.6-3.66,3.56-4.72,9.62-5.56,1.1,11.71-2.45,22.89-3.68,34.64,2.65,1.45,5.35,2.82,8,4.35,13.62,8,16.18,22.38,6.17,34.64a43.12,43.12,0,0,1-19,13.76c-5,1.79-7,4.63-6.45,10.24a47.83,47.83,0,0,0,4.85-1.16c8.1-2.76,16-6.12,24.31-8.26s16.65-3.17,25.05-4.35c1.39-.19,3.33,1.07,4.51,2.2q5.7,5.46,11,11.34c25.76,28.63,48.44,59.66,70,91.47,22.19,32.71,43.69,65.88,65.49,98.84,1.19,1.79,2.43,3.53,4.12,6,1-2.22,1.56-3.78,2.39-5.17,2.57-4.32,5-8.71,8-12.78,1.2-1.67,3.38-3.51,5.24-3.66,5.94-.46,10.79-3.29,15.93-5.74a14.22,14.22,0,0,1,7.05-1c21.63,1.86,40.28,10.29,55.28,26.09,9.52,10,14.52,22.35,16.73,35.87.42,2.57.73,5.15,1.1,7.76,5-.87,9.69-2.12,14.39-2.39,14.09-.8,27.57,2.25,40.3,8.11,15.34,7,22.09,19.72,19.46,36.47-1,6-3.16,11.83-4.87,17.72-.54,1.84-1.37,3.6-2.36,6.18,2.26,0,3.88.07,5.49,0,16.93-.75,30.15,6.57,40.8,19.08,5.87,6.88,6.89,14.94,4.57,23.57-2.53,9.36-7.65,17.29-14,24.33-5.43,6-11.49,11.46-17.36,17-2.52,2.39-5.29,4.52-9,7.63,2.9.74,4.62,1.3,6.39,1.61a47.19,47.19,0,0,1,23.88,11.83c12,10.75,14,24.91,5.31,38.55a75.08,75.08,0,0,1-21.12,21.49c-13.94,9.56-28.26,18.54-42.48,27.69-12.37,8-25,15.57-37.19,23.76a113.55,113.55,0,0,0-30.25,29c-10.51,15-14.41,31.51-9.91,49.41,2.56,10.2,5.32,20.48,9.37,30.14,13.32,31.79,27.27,63.32,41,94.94.87,2,1.79,4,2.83,5.94,1.31,2.41,1.23,4.48-.69,6.6-2.34,2.58-4.49,5.34-7.2,8.61a53.94,53.94,0,0,1-2.93-4.69c-18.82-38.73-36.32-78-51.39-118.4a243.92,243.92,0,0,1-9.37-32.89c-3.93-17.85,0-34.43,10.1-49.58a119.77,119.77,0,0,1,35.17-34.23c17.15-11.08,34.66-21.59,51.88-32.56,9.63-6.13,19.23-12.36,28.34-19.21,5.56-4.18,10.46-9.37,15.13-14.58a28.64,28.64,0,0,0,7.35-18c.31-6.48-1.93-10.41-8-11.95-14.76-3.7-29.2-2.93-42.49,5.38-12.47,7.79-24.7,16-37.27,23.58-5.42,3.28-9.37,2.43-13.18-1.36-2.76-2.75-3-4.58-.14-7.2a115.59,115.59,0,0,1,11.21-9.15c14-9.92,28.14-19.54,42-29.55,12.31-8.86,24.18-18.29,34.53-29.46,6.17-6.64,11.59-13.8,14.44-22.57,4.07-12.52.07-21-12.67-24.16-14.78-3.71-28.56-1-39.12,10.77-17.44,19.36-38.82,32.73-62.62,42.63a7.83,7.83,0,0,1-1.89.39,1.65,1.65,0,0,1-.64-.12c-1.21-9.31-1.15-9.22,6.2-13.57,10.39-6.15,20.79-12.3,31-18.72a112.57,112.57,0,0,0,27.39-24.49c4.64-5.7,8.11-12,9.39-19.34,1.88-10.78-1.44-19.67-10.34-26a56.36,56.36,0,0,0-13.46-6.74,110.57,110.57,0,0,0-31.58-6.16c-6.17-.33-6.18-.3-8,6a124.44,124.44,0,0,1-28.72,50.5c-8,8.54-18.25,13.56-28.55,18.53a10.13,10.13,0,0,1-3.18.67c-.36,0-.78-.31-1.59-.68-1.27-3.91,1.24-6.35,4-8.5,5.73-4.42,11.56-8.74,17.39-13,11.28-8.34,18.87-19.4,24.28-32.2,10.68-25.25,3.38-47.64-13.33-64.78-12.35-12.68-27.76-19.87-45.44-21.75a53.6,53.6,0,0,0-11.81.1c-7.31.85-8.55,2.66-6.2,9.49,2,5.79,4.69,11.35,7.07,17,1.78,4.25,4.05,8.37,5.23,12.78,6.82,25.53,2.81,49.16-15.45,68.66-19.62,21-43.41,35.22-72,41.22a670.21,670.21,0,0,1-66.34,10.28c-18.56,2-37.08,4.35-55.67,6-27.07,2.34-54,1.52-80.34-6.07-15.48-4.45-30.21-10.79-43.31-20.36-9.39-6.86-18.56-14-27.78-21.14-1.37-1.06-2.39-2.56-3.68-3.74-4-3.7-7.93-7.62-12.27-10.94-7-5.34-13.75-5.51-20.74-.79-6,4.09-10,10.08-7.94,19.3a85.69,85.69,0,0,0,12.17,28.28c7.52,11.44,16.65,21.52,26.49,31,19.42,18.65,41.3,34.05,63.84,48.62,15.86,10.25,31.86,20.34,47.1,31.46,14.53,10.59,28.22,22.34,42.14,33.74,6.26,5.13,9.92,12.29,12.87,19.56q39.06,96.52,84.27,190.32,37.18,77.15,74.64,154.16C1580.83,1605.76,1584.61,1612.94,1588.71,1621Zm-308.59-569.1c-3.25-5.92-6.73-11.74-9.69-17.8-3.58-7.31-2.76-9.64,4.35-13,25.2-12,49.31-26,73.23-40.36,33.67-20.22,65-43.5,92.06-72.05,11.31-11.92,21.44-25,32.1-37.51,4-4.68,7.69-9.6,11.94-14s6.1-4,9.87,1.06c2,2.64,3.93,5.28,6,7.85,22.27,27.73,44.66,55.32,64.77,84.75,16,23.42,31.14,47.12,40.85,74.49,4.46-4.78,6-10.3,7.12-16.32l-4.68-2.55c-.71-3.13-.86-5.85-1.93-8.15-5.26-11.34-10-23-16.37-33.73-11.1-18.68-23.31-36.69-35-55q-33.62-52.85-71.22-102.9C1472,791.15,1460,776,1448.07,760.78c-3.47-4.42-7.29-8.57-10.9-12.79-2.88,3.48-5.07,6.86-8,9.48-9.08,8.28-18.17,16.57-27.73,24.27-8,6.46-16.68,12.15-25.13,18.08a11,11,0,0,0-4.87,7.38c-3,15.3-6.15,30.56-9.39,45.81q-3.91,18.35-8.2,36.62c-.49,2.1-.51,4.72-4.12,6.86,2.07-28.8,8.36-55.9,11.19-84.24-1.8,1-3,1.56-4,2.3-7.83,5.66-15.67,11.31-23.44,17.05a578.72,578.72,0,0,1-75.32,47.13c-23.43,12.3-47.85,22-74.4,25.41a15,15,0,0,0-2.66,1c1.29,2.41,2.25,4.34,3.33,6.21q30.46,53.13,61,106.26c2,3.42,3.48,7.26,6,10.16A130.3,130.3,0,0,0,1280.12,1051.92Zm87.58-286.79c-3.52,1.44-5.78,2.21-7.9,3.26-15.14,7.48-30.51,14.55-45.31,22.64-27.78,15.18-53.41,33.69-79,52.19-14.83,10.7-28.24,23-41.15,35.84a63.93,63.93,0,0,0-11.55,15.28,11.67,11.67,0,0,0,2.64.3c3-.51,6-1,9-1.7,28.39-6.18,54.34-18.38,79.5-32.48,28-15.7,54-34.4,80-53.18,6.3-4.56,10.2-9.38,10.52-17.5C1364.74,782,1366.43,774.22,1367.7,765.13Zm7.51,23.84,1.38.72c18.9-12.67,37.72-25.46,53.29-42.78-3.39-.46-6.68-.71-9.62.19-12.32,3.8-24.55,7.88-36.74,12.07a5.76,5.76,0,0,0-3.31,3.49C1378.35,771.39,1376.84,780.19,1375.21,789Z"/><path class="cls-1" d="M430.39,780.28c1.84,1.21,3.86,2.43,5.76,3.82,18.26,13.36,36.29,27,52.75,42.59a16.91,16.91,0,0,0,5.35,3.7c17.89,6.76,36.28,10.83,55.47,7.77a83.42,83.42,0,0,0,20.13-5.84c18.1-7.89,27.83-22.22,29.71-41.78,1.47-15.2-1.83-29.6-7.69-43.6-20.12,2.26-36.26-4.88-50.2-19,.15,2.09.32,4.18.47,6.27.6,8.25-.44,16.19-4.32,23.65-4.52,8.72-11.48,12.93-21.4,12.15A59.26,59.26,0,0,1,492,762.69a220.44,220.44,0,0,1-25.53-16.19c-33.1-25-61.81-54.67-88.84-86-5.4-6.25-9.7-13.56-13.87-20.74-4-6.92-3.56-14.33-.22-21.55,2.89-6.25,7.53-10.15,14.59-10.77,3.69-.32,7.39-.61,12.69-1-3-1.78-4.8-2.84-6.59-3.86-12.7-7.3-22.33-17-25.29-32-.6-3-.89-6-1.38-9.5-1.65-.31-3.31-.77-5-.93a97,97,0,0,0-28.85,1.41A185.19,185.19,0,0,0,273,579.72a70.34,70.34,0,0,0-12,8.09c-19.91,16.91-40.18,33.46-59.37,51.16-29.29,27-54.67,57.69-79.34,88.88-39,49.25-77.53,98.83-116.27,148.27a16.33,16.33,0,0,1-5.71,5c-.08-3.19,0-6.39-.27-9.56-.78-9.54,3-16.91,9.06-24.27C51.19,796,92.7,744.3,134.67,693a557.85,557.85,0,0,1,58.4-61.65c18.59-16.74,37.57-33,56.51-49.4,23-19.82,49.46-32.73,79.32-37.81,32.4-5.5,62.52.92,89.15,20.74,5.4,4,10.13,9.08,14.64,14.14,6.05,6.77,7.4,14.75,4.28,23.37-.37,1-.7,2.06-1.36,4,19.19,7.58,39.49,11.71,58.44,20.75,1.08-1.53,2.17-2.83,3-4.28,22.58-39.7,45-79.5,67.75-119.09,10.29-17.89,21.31-35.35,32-53,1.59-2.63,2.63-5.72,4.65-7.94,5.78-6.38,5.3-13.49,4.26-21.35-5.58-42.46-12.78-84.65-20-126.85-4.19-24.43-6.94-49.11-10.23-73.7a56,56,0,0,1-.21-9.87c.38-8.12,2.46-9.62,10.45-7.4a100.42,100.42,0,0,1,12.47,4.21c57.52,24.6,116.61,45.44,173.18,72.29a8.07,8.07,0,0,0,8.54-.35c18.74-11,37.58-21.84,56.39-32.75a17.57,17.57,0,0,0,1.77-1.41c-.11-1.39-.29-2.88-.34-4.38-.2-7.19,4.08-12.3,11.27-12.82,7.81-.56,14.79,1.71,20.28,7.54s4.73,12.89-1.8,17.43c-5,3.45-10.64,4.69-16.29,2.51-4.29-1.65-7.35-.63-10.91,1.67-14.38,9.3-28.93,18.34-43.41,27.49-1.79,1.13-3.5,2.38-6.14,4.18,2.87,1.52,4.91,2.63,7,3.69,20.56,10.44,40.94,21.28,59.88,34.49a203.57,203.57,0,0,1,22.52,18.17c8.33,7.77,7.09,12.07-3.8,15.2-62.94,18.09-124,41.56-185.8,63.11-15.54,5.42-31.16,10.64-46.77,15.85-8.15,2.72-16.44,4.75-25.62,3.82L505.31,635.34l15.89,18.22c8.65,9.93,17.27,19.88,26,29.73a6.36,6.36,0,0,0,3.82,2c10,.89,17.72,6.21,24.6,12.87a106.52,106.52,0,0,1,31.74,60.11c3,17.75,1.54,35-5.6,51.64-11.12,26-33.69,41.15-62,41-8.29-.05-16.57-1.13-26.06-1.83,2,2,3.57,3.62,5.18,5.12,14.8,13.78,29.22,27.92,42,43.6,10.88,13.32,20.7,27.3,26.82,43.56,2.74,7.31,4.51,14.77,2.4,22.54A44.93,44.93,0,0,1,586.6,973a16.68,16.68,0,0,1-14.83,9.41c-3.93.16-7.86,0-12.82,0,1.26,2.24,2.22,4.06,3.27,5.81,3.89,6.43,7.45,13,8.37,20.6a40.93,40.93,0,0,1-.05,11.75c-2.78,16-13,23.36-29.13,21.45-13.86-1.63-26-7.76-37.88-14.48-2.46-1.4-4.86-2.89-8.62-5.13.81,3.36,1.32,5.52,1.85,7.68,3.07,12.34-.07,20.61-10.57,27.91-14.73,10.23-29.86,10.83-45,1.28-10-6.32-19.76-13.11-29.45-19.94-27.47-19.34-54.67-39.06-82.32-58.13a259.06,259.06,0,0,0-48.67-26.15,88.41,88.41,0,0,0-28.07-6.68c-10.69-.69-20.83,1.34-28.95,8.55-10.15,9-20.33,18.16-29.41,28.23-32.79,36.37-65.15,73.12-97.64,109.77-14,15.77-27.88,31.62-41.83,47.41-1.58,1.78-3.33,3.4-5.74,5.84-2.21-6.13-4.29-11.32-5.85-16.67-.37-1.26.64-3.37,1.65-4.53q59.17-67.69,118.52-135.25c11-12.53,22.16-25,33.7-37a149.32,149.32,0,0,1,18.43-15.88c10.29-7.74,22.08-10.31,34.87-8.81a128.31,128.31,0,0,1,39.65,11.51c26,12.14,49.63,28.15,72.88,44.74,16.62,11.87,32.93,24.17,49.38,36.26,2.1,1.54,4.23,3,6.17,4.41.8-.39,1.36-.47,1.52-.77,5.27-10.24,14.31-13.8,25.09-13.77,14.09,0,26.18,4.92,35.59,15.73a14.26,14.26,0,0,0,1.95,1.68c.12.09.4,0,1,0,2.09-3.07,1.14-6.29-.69-9-3.19-4.71-6.4-9.55-10.41-13.51A225.55,225.55,0,0,0,454,991.44C435.29,976.56,416.31,962,397.65,947c-6.66-5.34-12.76-11.4-18.95-17.31-2.5-2.38-4.84-5.14-3.17-9.43,5,1.07,9,3.75,12.93,6.41,4.54,3.09,8.86,6.49,13.24,9.8,17,12.87,34.08,25.58,50.84,38.71,8.63,6.75,16.58,14.36,25,21.41,3.48,2.92,7.33,5.39,10.68,7.81,1-.47,1.25-.51,1.34-.66,6.72-10.91,17.07-13,28.66-11.46a65.42,65.42,0,0,1,35.91,16.56c.81.74,1.59,1.51,2.4,2.25a6.94,6.94,0,0,0,1.15.49c.06-2.91-1.64-4.84-2.89-6.8a214.51,214.51,0,0,0-29.7-36.87q-33.89-33.66-68.45-66.63c-16.49-15.81-33.06-31.52-47.83-49-2.27-2.68-4.68-5.27-6.67-8.14-3.27-4.71-2.75-7.39,1.76-11.86,40.95,33.08,78.65,69.74,116.55,106.08C537,923,553.54,927,570.92,937.14c-1.25-1.91-2.45-3.86-3.76-5.73a259.6,259.6,0,0,0-34-39.34c-22.8-21.59-46.12-42.62-69-64.12-11.84-11.11-23.33-22.61-34.78-34.13C424.27,788.66,424.6,785.74,430.39,780.28Zm334-492a17.81,17.81,0,0,0-1.93-1.37c-54.73-26.14-112.09-46-167.64-70.13a38.5,38.5,0,0,0-4.34-1.4,1,1,0,0,0-.63.14c-.17.1-.28.31-.82,1,11.58,71.19,28.59,141.87,36.27,214.78C700.92,406.4,773.87,377,849.12,354.34c4.82-1.45,9.52-3.33,14.26-5a1,1,0,0,0,.5-.42,6.74,6.74,0,0,0,.13-1.46c-4.62-5.14-10.52-9.64-16.59-13.89-20.21-14.14-42-25.44-64-36.64-2.75-1.41-4.79-.93-7.29.49-13.56,7.7-27.21,15.22-40.81,22.84a25.33,25.33,0,0,0-2.76,2.1c7.59,4,15,7.37,21.88,11.6a83,83,0,0,1,15,11.57c4.71,4.64,3.59,8.25-2.44,11.12C752,363.8,737.1,371.3,721.83,378c-15.67,6.86-31.64,13.05-47.59,19.24-7,2.73-14.41,4-22,2.34-6.47-1.44-11.07-4.69-12.47-11.82-2.08-10.55-4.85-21-7-31.49q-7.32-35.81-14.29-71.67c-.47-2.4-.07-5-.07-7.93,7.8.93,14.41,2.58,20.55,6.23a119.77,119.77,0,0,0,15.71,8.22c19.91,8.13,40,15.9,59.92,23.95,2.79,1.12,4.85.73,7.32-.78,12.53-7.7,25.18-15.21,37.77-22.82C761.16,290.57,762.53,289.52,764.4,288.23ZM530.6,703.68,423.08,619.52c-6.84,1.45-13.84,3.38-21,4.31s-14.45.84-21.68,1.26c-1.58.09-3.15.48-5.74.89,3.63,5.14,6.32,9.71,9.75,13.64,11.09,12.74,22.14,25.55,33.79,37.78,20,21,41.24,40.73,65.47,56.94,9.16,6.13,18.65,11.69,29.25,14.87,4.77,1.43,9.85,1.94,14.82,2.5,2.82.32,4.59-1.28,4.42-4.35-.2-3.94-.19-7.92-.77-11.81C529.82,724.68,527.87,713.86,530.6,703.68ZM427.72,600.28c-16-22.57-37.57-33.42-63.19-38.78-1.57,9.06,1.24,15.82,6.84,21.66,10.11,10.53,22.7,16.44,36.89,18.74C414.17,602.86,420.41,603.4,427.72,600.28ZM527.9,944.82c14.93,22.22,34.91,30,52.92,22.92-1.61-11.78-9.49-18.82-19.42-23.19C550.58,939.79,539.13,937.15,527.9,944.82ZM426.06,1031.4c16.83,18.14,43.61,20.2,53.05,3.9-11.78-12.13-26.23-14.95-42.21-11.66A15.56,15.56,0,0,0,426.06,1031.4Zm71.12-22.86a16.48,16.48,0,0,0,2.26,1.87c11.35,6.25,23.13,11.67,35.71,14.78,6.05,1.5,12.54,1.36,18.84,1.72,1.59.09,3.23-.76,4.77-1.16a7.88,7.88,0,0,0-.2-1.84,8.26,8.26,0,0,0-1.37-2.22c-13.79-14.11-30.3-21.2-50.23-19.1A12.47,12.47,0,0,0,497.18,1008.54Zm89.4-271.14a35.68,35.68,0,0,0-1.73-3.64c-6-9-12.78-17.35-21.24-24.12a60.12,60.12,0,0,0-11.77-7.06,17.39,17.39,0,0,0-7.66-1.32c-4.72.11-6.46,2.32-5.07,6.9,1,3.28,2.44,6.86,4.78,9.21,5.38,5.41,11,10.77,17.33,15C568.43,737.19,576.79,739.1,586.58,737.4Z"/><path class="cls-1" d="M539,1317.54c24.61,8.21,34.46,18.82,34.37,38.69,2.48.19,5,.42,7.56.57,34.2,2,68.42,3.71,102.6,6,13.77.93,27.46,3.15,41.21,4.67,3.87.43,7.79.45,11.59.66,1,6.12-.81,9.35-6.15,10.31a94.67,94.67,0,0,1-11.81,1c-24,1.3-47.84,0-71.75-1.25-29.61-1.58-59.22-3-88.85-4.19a275.31,275.31,0,0,0-56.47,3.37,25.53,25.53,0,0,0-9.46,3.42,17.63,17.63,0,0,0,2.59.4c13.21.16,24.8,5.21,35.72,12a44.28,44.28,0,0,1,7.59,6.29c7.47,7.41,11.72,15.94,8.1,26.85a18.36,18.36,0,0,0,11.83,3.79c20.36.16,40.1,4.58,60,7.93,18.84,3.18,37.72,6.11,56.56,9.28a46.08,46.08,0,0,1,16.27,5.5c-1.92,4.63-5.84,4.61-9.36,4.5a200.42,200.42,0,0,1-22.34-1.42c-26.74-3.77-53.44-7.86-80.14-11.9-10.66-1.61-21.33-3.09-32.13-2a58.76,58.76,0,0,0-9.67,1.86c-2.75.77-5.36,2.06-6.15,6a29.54,29.54,0,0,0,4.15.51c15.54-.17,28.1,6.17,38.16,17.67,7,8,8.43,15.63,5.65,28.32,2.25.5,4.49,1.07,6.76,1.5,30.62,5.89,61.27,11.6,91.84,17.7a336.86,336.86,0,0,1,65.32,20.27A114,114,0,0,1,775,1557a48.26,48.26,0,0,1,15.57,29.74c2.11,14.89,1.65,29.83.41,44.71-2.33,27.79-5,55.55-7.78,83.3-2.79,28.19-5.82,56.36-8.77,84.53-.2,2-.61,3.88-1,6-5.76,1.7-11.29.09-17.47.43.17-3.09.22-5.43.43-7.76,2.34-25.36,4.78-50.72,7-76.09,2.71-30.63,5.63-61.24,7.74-91.9.87-12.65.18-25.44-.42-38.13-.41-8.63-4.64-15.91-10.38-22.28-8.09-9-18.05-15.37-28.94-20.27-22.13-9.95-45.34-16.68-69-21.55-31.4-6.45-62.94-12.23-94.38-18.46-9.9-2-19.78-4.18-29.52-6.83-18.6-5.06-28.84-17.25-31.22-36.43-1.45-11.68,2.69-20,12.88-25.87,2.25-1.3,4.53-2.53,7.67-4.28l-5.52-2c-8.67-3.1-17.45-5.93-26-9.38a57.07,57.07,0,0,1-19.93-13.75c-7.8-8.19-9.18-16.9-4.56-27.25,5.05-11.33,14.36-17.43,25.7-20.93,4.78-1.47,9.68-2.52,15.4-4-2.53-2.51-4.53-4.45-6.48-6.43-8.2-8.34-9.45-15.83-4.32-26.32,4.4-9,11.88-14.47,20.88-18.18a145.87,145.87,0,0,1,37.58-9.45c26.07-3.32,52.17-2.35,78.28-.76,2.08.12,4.17,0,7.59,0-2.63-2.06-4.28-3.35-5.92-4.66-9.34-7.4-18-15.45-24.17-25.83-14.58-24.58-13-49.11,1.1-73.1,15.75-26.85,40.31-41.58,70-48.32a96.25,96.25,0,0,1,34.72-1.57c7.53,1,14.45,3.49,20.44,8.41a8.52,8.52,0,0,0,5.21,1.83c14.92-.52,29.82-1.35,44.74-1.9,6.56-.24,13.15,0,20.43,0,21.81-74.39,43.94-148.3,64.62-223a17.82,17.82,0,0,0-2.94-1.33c-29.15-7.11-49.66-25.32-64.55-50.53-13.41-22.69-20-47.66-23.7-73.52-6-42.71-2.54-85,6-127,4.46-22,10.07-43.65,18.15-64.61,1.81-4.7,3.72-9.37,5.31-14.15.81-2.44,2.23-3.87,4.65-3.89a54.42,54.42,0,0,1,9.81.54c62.33,10.79,124.37,23,185.15,40.81,21.71,6.38,43.33,13,64,22.32,5.19,2.33,10.13,5.23,15.15,8,3.23,1.75,4.1,4.14,3.72,8.12-2,20.79-9.1,40.21-15.58,59.78-17.13,51.7-42.84,98.57-79.32,139.25-14.9,16.63-31.79,30.9-51.3,41.92-17.11,9.67-35.25,15.72-55.13,15.69a26,26,0,0,0-2.81.33L827.84,1153.6l56.79,30.15c1-1.61,1.81-2.85,2.51-4.16,4.39-8.29,11.3-12.56,20.62-13.17a96.66,96.66,0,0,1,46.22,8.32q39.21,17.43,60.1,55c15.12,27.16,21.77,56.35,22.59,87.12.19,7,0,14.06.19,21.08.33,10.53.6,21.07,1.37,31.57,1.57,21.31.81,42.56-.59,63.84-3,45.41-9.73,90.38-15.84,135.42-8.24,60.7-17,121.34-25.3,182-1.25,9.11-1,18.4-1.73,27.6-1.32,17.52-3.29,35-7,52.17-1.32,6.09-3.91,8.24-9.33,7.82a8.73,8.73,0,0,1-3.15-.81c-2.63-1.33-5.17-2.83-8.47-4.66.25-1.84.46-4.18.9-6.47,3.17-16.38,6.77-32.68,9.47-49.13,2.31-14.06,3.31-28.33,5.4-42.44q9.47-63.86,19.34-127.66c8.44-54.91,16.93-109.82,22.3-165.14,3.26-33.5,4.34-67.06,1.53-100.67-.52-6.12-.78-12.28-.74-18.42.16-28.69-8.33-54.89-22.24-79.65a112.6,112.6,0,0,0-22.18-28.45c-1.61-1.46-3.3-2.84-5.56-4.77-7.86,6.63-16.55,11.57-26.89,12.67s-20-1.56-30.43-3.8c1.57,1.86,3.13,3.73,4.71,5.58,10.82,12.68,7.2,30-8.44,36a82.07,82.07,0,0,1-25.62,5.41c-47.47,2.19-94.86,1.75-141.75-7.5-10.38-2-20.5-5.1-29.8-10.22a83.5,83.5,0,0,1-13-8.84c-7.59-6.27-9.51-14.44-6.62-23.77,2.63-8.47,7.9-15.09,14.62-20.68l6.58-5.43c-3.37-.28-5.21-.56-7.06-.56-14.1,0-26-5.72-36.65-14.4-2.64-2.15-4.42-5.35-6.89-8.46a48.15,48.15,0,0,0-4.69,1.42,100.15,100.15,0,0,0-28.42,17.63c-19.5,17.26-24.69,40.82-13.89,64.51,8,17.54,21.16,30.48,37.24,40.75,10.13,6.46,20.55,11.09,33,11.27,20.49.3,40.44,5.33,60.58,8.65,2.38.39,5.68,0,6,3.82.26,3.57-2.86,7.24-6.61,7.78a28.36,28.36,0,0,1-4.61.16c-22.39-.37-44.74-1.35-67.08-3.34-36.53-3.26-73.09-6.51-109.84-4.83-9,.41-17.91,1.69-26.86,2.63A25.78,25.78,0,0,0,539,1317.54Zm349-397.65c6.49-.86,13.08-1.29,19.46-2.67,17.2-3.72,32.62-11.55,46.9-21.67,19.67-13.93,36.63-30.69,51.58-49.56,17.39-22,31.59-45.87,44.16-70.84,15.46-30.72,26.9-62.91,35.6-96.12,1.63-6.2.84-8-4.85-11.09-16.32-8.78-33.67-15-51.25-20.6-44-14-88.91-24.21-134.18-33-19.6-3.79-39.31-7-59-10.42-6.48-1.11-6.94-.74-8.89,5.49-1.12,3.56-2,7.18-3.2,10.73-13.89,42.58-23,86-24.1,131-.66,26.88,1,53.54,7.35,79.76,5.16,21.3,12.94,41.52,26.41,59.08S864.38,919.61,887.94,919.89ZM912.37,1244c.22-.54.43-1.09.64-1.63-1.52-1.79-3-3.62-4.59-5.37-9-10-18-19.91-22.92-32.7-.85-2.23-2.42-2.74-4.55-3-18.06-2.32-36.16-4.47-54.17-7.18-25-3.76-49.85-8-74.77-12-2.56-.41-5.1-1-6.54-1.28-6,5.71-11.09,10.86-16.57,15.52-4,3.4-8.65,6-12.81,9.24-3.22,2.51-6.12,5.43-9.67,8.62,2.38,2.73,3.94,5.17,6.1,6.83a78,78,0,0,0,11,7.12c11.77,6.21,24.51,9.59,37.49,12.06,44.32,8.43,89.05,8.67,133.88,6.15C900.76,1246.07,906.55,1244.84,912.37,1244Zm56.79-37.68c-18.52-17.22-57.59-26.77-73.44-19.62.71,1.49,1.13,3.2,2.15,4.42,13.86,16.77,31.69,25,53.45,24.51C958.48,1215.48,964.26,1212.16,969.16,1206.35ZM562.75,1355.56c.59-5.16-1.79-9.12-4.79-12.58a47,47,0,0,0-21.58-14.46,38.48,38.48,0,0,0-21.45-.48c-7.27,1.87-8.21,5.18-4,10.07,1.28,1.5,2.47,3.09,3.83,4.5C528.08,1356.52,544.72,1358.15,562.75,1355.56Zm7.5,139.4c1.84-6.47.41-11.64-2.57-16.37A47.44,47.44,0,0,0,546.05,1460c-5.32-2.3-11-4-17.83-2.48.89,12.48,4.79,22.84,15.6,29.63C551.83,1492.22,561.08,1492.79,570.25,1495Zm-90.84-106c1.73,2.81,2.52,4.95,4,6.34,4.44,4.17,8.76,8.68,13.85,11.92,11.13,7.07,23.31,12.08,35.83,16.21a26.69,26.69,0,0,0,4,.63c1.19-5-.29-9-3.09-12.51-12.05-15.25-28.22-22.32-47.27-23.48C484.67,1387.9,482.59,1388.5,479.41,1388.91Zm199-225.72c.87,1.29,1.47,2.41,2.27,3.36,10.3,12.26,35.19,18.78,50.27,13.19.42-.15.84-.27,1.24-.45,6.7-2.94,7.72-7.46,1.82-11.64a40,40,0,0,0-14.27-6.18c-12.81-2.78-25.74-1.69-38.56.62A17.34,17.34,0,0,0,678.43,1163.19Z"/><path class="cls-1" d="M1239.9,398.12c-15.57,12.05-32.35,20.1-51.28,23.67-10.68,2-17.48,8.95-21.09,18.76s.35,16.25,10.56,18.4a38.47,38.47,0,0,0,19.57-.86q19.44-6.12,38.51-13.37c10-3.82,19.8-8.43,29.69-12.66a27.4,27.4,0,0,1,3.74-1.26c2-.54,4.2-1.93,6,.54,1.45,2.06,1.34,6.05-.64,8a23.36,23.36,0,0,1-5.89,4.14c-7.86,3.89-15.72,7.84-23.78,11.31-10.69,4.61-16.81,13.14-20.75,23.48-2.21,5.8-.08,9.62,5.83,11.95,5.07,2,10.28,1.93,15.56.84,11.32-2.32,21.54-7.46,31.77-12.54,12.58-6.25,25.08-12.67,37.73-18.79a126.56,126.56,0,0,1,14-5.51c34.14-11.8,68.89-18.27,105.37-15.76,47.39,3.27,94.3,9.87,141.13,17.39,84.23,13.52,166.95,33.58,248.87,57.09,21.29,6.11,42.27,13.35,63.34,20.2a47.65,47.65,0,0,1,9.54,4.39c3.77,2.24,6,5.61,5.61,10.41-3.93,1.89-7.43.2-10.88-.93-17.53-5.72-34.86-12.1-52.56-17.19-82.95-23.9-166.73-44.23-252-58-39.67-6.42-79.38-12.49-119.4-16.22-20.57-1.93-41.2-3-61.85-1.77a114,114,0,0,0-21.48,3.07c-22.09,5.69-44.15,11.54-66,18.09-8.72,2.62-16.85,7.23-25.88,11.21,4.23,16.27,8.27,31.86,12.34,47.55a283.94,283.94,0,0,1,52.79-12.07c13.73-1.75,27.17.11,40.26,4.5a43.81,43.81,0,0,1,4.89,2c11.39,5.43,14.17,14.47,7.68,25.44-4.52,7.62-11.37,12.85-19.12,16.68-10.22,5.06-20.54,10-31.16,14.14-34.36,13.28-70.05,21.58-106.43,26.86a100,100,0,0,1-24.93.34c-14.74-1.62-19.59-11-13-24.33a39.78,39.78,0,0,1,8.43-11.64,106.86,106.86,0,0,1,17.75-13.48,256.15,256.15,0,0,1,46.14-20.88q2.48-.86,4.91-1.86c.36-.15.6-.6,1.22-1.27-4-14.74-8.11-29.72-12.41-45.47-2.23.82-4,1.43-5.69,2.11-7.94,3.18-15.76,6.71-23.85,9.42a44.2,44.2,0,0,1-13.59,2c-11.05.06-18.65-6.56-20.67-17.45a34.67,34.67,0,0,1,1.18-18.2c.49-1.39.85-2.83,1.6-5.38-3,.84-5.22,1.55-7.45,2-8.13,1.75-16.24,3.67-24.44,5a33,33,0,0,1-10.47-.54c-9.55-1.61-15.2-7.44-16.92-16.91-1.79-9.82-1-19.26,4.91-27.77.59-.87,1-1.85,1.91-3.48-2.84-.54-5.14-1-7.43-1.42-21-4.22-28.95-17-23.2-37.51,2.82-10.05,6.66-19.58,15.67-26.9-28.72-22.68-26.37-50.36-12.22-80.57-2.8-.08-5.08-.21-7.36-.2-17.49.12-34.6-2-51.07-8.25a90.88,90.88,0,0,1-36.51-25.15c-10.47-11.83-16.15-25.48-16.31-41.34-.2-19.58,2.68-38.51,11.92-56.1,1.53-2.92,3.11-5.82,4.37-8.86,4.65-11.19,13.43-18.24,23.74-23.64,17.79-9.3,36.75-15.61,55.9-21.39,32.57-9.85,65.14-19.72,98.59-26.3,4.08-.8,8.21-1.41,12.33-2a4.89,4.89,0,0,1,4,1.09c-11.57,2.8-23.2,5.4-34.71,8.44q-17.51,4.64-34.81,10c-11.53,3.55-23,7.37-34.4,11.33s-22.77,8.06-34,12.42-22.26,8.93-32.71,14.84l.2,1.39a54.73,54.73,0,0,0,6.78,0c17-2.15,34-4.18,50.93-6.66a417.71,417.71,0,0,0,100.52-28.41c10.45-4.36,20.18-10.58,29.91-16.5,4.38-2.66,8.55-6.14,10.7-11.86l-10.72,2.56c-.31-2.59-.52-4.39-.77-6.53-1.43,0-2.49,0-3.55,0-13.75.37-23.07-7.26-30.82-17.39-3.09-4-2.26-7.13,2.07-10,5.54-3.62,11.44-4.55,17.44-1.24s11.73,6.82,18.13,10.56c.71-1.62,1.52-3.27,2.18-5,3.39-8.92,7.9-17.14,14.66-24a29.68,29.68,0,0,1,14-8.33c8.29-2.08,11.94,1.4,9.95,9.69-3.08,12.85-9.62,24-17.79,34.21-1.08,1.36-2.21,2.7-3.3,4.06-.11.14-.06.41-.14,1.18l4.75.8a82.53,82.53,0,0,1,9.07,1.54c2.74.77,3.32,3,1.32,5a24.75,24.75,0,0,1-5.82,4.16,69.73,69.73,0,0,1-7.32,3c3.25,2,5.68,3.56,8.19,5,13,7.44,25.54,15.55,36.24,26.11A109.48,109.48,0,0,1,1340,109.78c12.86,18.17,13.45,37.55,4.5,57.45-2.59,5.76-6,11.14-9.31,17.06,1.77.72,3.32,1.41,4.91,2,19.6,7.36,36.64,18.77,52,32.86a27.74,27.74,0,0,1,3.58,3.85c8,10.78,18.9,17.48,31,22.62,29.21,12.41,59.53,21.14,90.62,27.27,29.93,5.91,59.9,11.65,90.23,15.21,25.94,3.05,51.92,5.75,77.89,8.61q33.06,3.64,66.11,7.33c8.94,1,17.9,1.95,26.81,3.18,5.26.73,6.56,2.6,5.74,6.79-.6,3.05-2.42,4.69-5.47,4.61-2.39-.07-4.77-.59-7.17-.82-40.86-4-81.71-8-122.59-11.87-54-5.1-107.81-11.61-160.79-23.67a407.69,407.69,0,0,1-64-20,90.26,90.26,0,0,1-34.26-24.88c-12.14-13.91-25-27.24-41.28-36.47-5-2.8-10.2-5.09-15.34-7.58-2.4-1.16-4.54-1.16-6.42,1.2-11.44,14.41-25.25,26.22-40.4,36.55-.47.33-.7,1-1.23,1.81,2.87,2.26,6.17,2.23,9.35,2.46,4.6.33,9.24.29,13.81.85,9.38,1.16,12.12,6.78,6.94,14.72a74.91,74.91,0,0,1-9.64,11.63c-19.68,19.79-41.44,37.06-67.42,47.51-16.78,6.74-34.75,8.26-51.17-2.38-4.46-2.88-7.9-7.5-11.4-11.66-2.81-3.35-4.87-7.31-7.52-10.81a86.12,86.12,0,0,0-6.28-6.65c-2.37,2.56-4.59,4.36-6,6.63-10.72,16.67-12.2,43.91,4.75,61.8,10.78,11.36,24.69,13.44,39.42,12.37,9.15-.67,17.26-4.88,25.63-8.16,4.39-1.72,4.39-1.72,8.82-.22-.07,2.94-2.66,3.67-4.5,4.95-13.32,9.23-28.31,11.48-44,10.16-5.66-.48-11.24-1.86-16.86-2.83-1.49-.26-3-.54-4.91-.89-6.66,10.89-11.49,22.29-11.4,35.18.06,8.66,5,15.24,13.43,17.46a43.23,43.23,0,0,0,14.92,1c10.38-1,20-4.73,29.27-9.55,6-3.15,12.22-6.06,18-9.57C1232.46,394.34,1235.94,393.85,1239.9,398.12Zm67.87-217.29c5.08.42,9,1,12.91,1a6,6,0,0,0,4.38-2c9.06-12.86,15-26.82,14-43-1-15.35-9-27.32-19.08-38.06a159.69,159.69,0,0,0-31.13-25.24c-4.95-3.16-9.93-6.28-15-9.48-1.09,1.21-1.88,2-2.51,2.81a72.77,72.77,0,0,1-22.74,19.68,198.64,198.64,0,0,1-38.89,17.69c-18.61,5.92-37.26,11.77-56.14,16.76-28.7,7.58-57.84,12.83-87.65,13.32-3,0-4.2,1.38-5.47,3.68a118.57,118.57,0,0,0-14.71,62.67,57.57,57.57,0,0,0,12.78,34.55c15.14,19.14,35.42,29,59,32.62,15.53,2.41,31.11,1.46,46.64-.06a244.45,244.45,0,0,0,95.46-29.89,40.61,40.61,0,0,0,4.2-3.13l-4.93-5.69a33.65,33.65,0,0,0-3.12,1.45c-24.68,15.56-51.78,23.72-80.67,26-21.29,1.71-42.63,1.91-63.54-3.28-20.65-5.13-37-16.45-48.4-34.83-8.56-13.84-8.65-27.7-1.32-41.9,8.42-16.28,23.59-22.23,40.38-14.89,8.78,3.84,16.86,9.31,25.21,14.13,5.12,3,10,6.47,15.25,9.09,17.2,8.51,35,10,52.83,2.4a150.26,150.26,0,0,0,22.59-12c13.92-9,25.31-21,36.33-33.27,5.72-6.37,11.29-12.88,17.11-19.16a45.21,45.21,0,0,1,23.47-13.59c10.76-2.57,18.12.38,23.93,11.89,3.86,7.66,4.45,16,3.15,24.45-1.59,10.34-5.51,19.83-10.79,28.81C1310.25,176.22,1309.27,178.11,1307.77,180.83Zm-8.94,368.67a15.69,15.69,0,0,0-2.84.28c-20.6,7-40.58,15.52-59.17,26.92-5,3-9.37,7.21-13.5,11.39-3.41,3.45-2.76,6.77,1.63,9a25.72,25.72,0,0,0,10.6,3.07,204.58,204.58,0,0,0,26.9-.92c26-3,51.28-9.65,76.3-17.16a276.87,276.87,0,0,0,54.52-22.85,73.4,73.4,0,0,0,11.31-7.85c4.07-3.41,4-5.79-.38-8.86a40.19,40.19,0,0,0-10-4.92,95.74,95.74,0,0,0-45.45-4.16c-11.5,1.64-22.92,3.88-34.36,5.92-2.07.37-4.08,1.07-6.71,1.78,1.84,4.77,3.65,8.75,4.86,12.9a23.49,23.49,0,0,1,.84,8.34c-.22,2.63-2.43,4.11-5,4.42s-3.14-1.91-3.9-3.7C1302.64,558.64,1300.8,554.21,1298.83,549.5Zm-58.3-250.28c3.61-2.21,6.39-3.9,9.14-5.63a247.18,247.18,0,0,0,45.2-37c3.29-3.37,6.89-6.77,7.24-12.39-1.39-.28-2.62-.59-3.87-.76-7.58-1-15.15-2.11-22.77-2.8a14.45,14.45,0,0,0-6.76,1.47c-13.4,6-26.74,12.07-40.09,18.17-1.29.59-2.48,1.4-3.6,2.05,2.83,6.24,5.57,11.95,8,17.79C1235.58,286.14,1237.83,292.3,1240.53,299.22Zm-9.72,4.06-11.46-39.22-44.66,10.57c9.18,6.13,14.08,14.65,19.52,22.78,5.57,8.34,13.72,11.16,23.32,9.67C1221.78,306.41,1225.86,304.73,1230.81,303.28Zm86.28-112.85c-4-.64-6.8-1-9.53-1.54-4.11-.88-6.79.72-9.62,3.79-7.54,8.19-15.57,15.92-23.41,23.83-1.17,1.19-2.32,2.4-3.82,4l5.85,6.6A159.79,159.79,0,0,0,1317.09,190.43ZM1274.43,40.6c7.14-7,12.65-19,11.8-25.83A75,75,0,0,0,1274.43,40.6Z"/><path class="cls-1" d="M888,702c35.83,3.41,71.7,6.52,107.49,10.41,13,1.42,25.92,4.5,38.79,7.24,8.9,1.9,12.75,7.19,11.39,16.27a142.85,142.85,0,0,1-5.31,21.68c-5.3,16.85-13.41,32.48-22.18,47.69-14.45,25-31.63,48-52.54,68.09-17.05,16.36-37,27.34-60.38,31.56-19.58,3.52-36.43-1.2-50.47-15.73a105.08,105.08,0,0,1-22.36-35.36c-6.88-17.57-9.74-36-11.4-54.62-1.69-18.84-1.73-37.72,1-56.51.84-5.86,1.94-11.69,3.2-17.47,2.21-10.12,8.5-16.48,18.3-19.74,10.64-3.54,21.6-3.48,32.58-3.33,4,.05,7.89.43,11.84.66Z"/></g></g></svg>