<svg xmlns="http://www.w3.org/2000/svg" viewBox="0 0 1105.59 1461.54"><defs><style>.cls-1{fill:#f1d2d3;}</style></defs><g id="Слой_2" data-name="Слой 2"><g id="logo_2" data-name="logo 2"><path class="cls-1" d="M177.42,615.53c-41.27,4.87-76.27,4.16-102.56-7.53-26.29-11.46-46.06-30.84-57.44-59.64S.08,484,.08,442.42V214.07c0-43.63,5.41-81.85,14-114,8.79-32.17,23.31-56.66,42.54-73.92C76.12,8.79,102,0,137.48,0c33.43,0,61.6,7.93,85.07,24.48C245.85,41,265.78,64.9,280.69,94.79A349.21,349.21,0,0,1,312.4,195.08q4.23,26.49,7.22,52.11c-29.75-3.77-60.43-6.75-92.44-9-1.89-17.34-4.16-35-6.67-52.65a358.92,358.92,0,0,0-10-47.95c-4-14.67-10.36-26.68-18.6-35.7S171.3,88,155,87.34c-16.48-.55-27.86,3.77-34.45,12.63s-10.28,21-10.83,36.1a372.15,372.15,0,0,0,1.42,51c7.69,89.53,10.67,176.09,10.67,262.17,0,21.66,1.72,39.16,4.94,52.5,3.38,13.57,9.65,23.15,18.6,29.19s21.19,8.08,36.41,7c17.5-1.33,29.58-5.65,37-14.12,7.38-8.24,12.24-19,14.52-32.33a286.51,286.51,0,0,0,3.69-45c.15-16.95.15-33.82,0-51,32.4,1.49,63,4.55,92.28,8.47,0,14.83,0,29.74-.55,44.42-.86,32.56-6.51,60.34-16.09,84.43s-24.72,42.3-45.82,56.27S216.82,610.75,177,615.45l.32.16Z"/><path class="cls-1" d="M372.82,609.41c23-177.34,28.72-353.2-43.47-609.33,29.27.16,58.54.39,87.65.55,29.82,114.64,45.2,212.42,51,300.31,30.68,6,60.42,12.16,89.69,17.66-3.14-91.74-15.46-195.16-42.45-317.34,29.27,0,58.69.39,88,.39,53.83,304.86,29.82,497.19-.7,673-23.7-7.22-47.32-15-71.18-22.76C544.67,573.24,555.74,492.49,558,400.6c-28.4-6.83-57.28-13.81-87.42-20.88.32,88.83-8.63,168.4-20.71,247.27-24.88-6.83-50.46-12.87-77.14-17.66h.16Z"/><path class="cls-1" d="M682.15,698.4c31-176.41,59.17-373,14.83-679.65H786.6c31,307.22,1.18,511.8-27.47,693.22a696.41,696.41,0,0,1-76.82-13.65h-.16Z"/><path class="cls-1" d="M823.4,712.05c24-190,51.72-403.26,32.33-708.75,20.33,0,40.57-.16,60.9-.4,45.2,167.23,72.35,292.94,108.92,402.33,4.94-126.11,8.63-259.19,7.61-403.9,24-.39,48.18-.78,72.35-1.33V645c-26,11.38-50.85,21-74.71,29.19-44.33-108.29-72.19-217.84-102.24-353.44C922,464.16,909,589.09,897.72,706.48a576.85,576.85,0,0,1-74.47,5.1l.15.39Z"/><path class="cls-1" d="M137.48,1461.54c-35.47,0-63.48-11.85-83.41-31.39-20.09-19.7-34-44-41.83-74.63C4.16,1324.92,0,1289.92,0,1248.41V1020.29c0-43.63,4.87-84.2,15.22-120.85s28.72-69,54.07-94.71c25.19-25.74,59.33-44,98.48-51.87,36.88-7.14,62.78-2.67,80,9.57S275,793.82,279.2,819c4.16,25.35,4,55.24,0,90.56-1.88,17.26-3.69,34.76-5.57,52.57a536.3,536.3,0,0,0-78.55,10c1.57-18.6,3.14-37,4.87-55.09,1.57-17.66,2.43-33.27,2.43-47.16s-2.67-24.41-8.24-31.39c-5.57-7.14-16.09-9.18-32.17-5.41-16.25,3.76-28.73,11.84-37,22.91-8.24,11.3-14.13,24.95-17.11,41a383.42,383.42,0,0,0-6.12,53.21c-5,92.67-9.42,189.19-11.85,292-.55,25.74.39,47,3,63.48s7.38,29,14.52,36.81,16.95,11.3,29.35,9.8c14.36-1.72,24.48-8.47,30.29-20.63,6-12.25,9.57-27.78,11.22-46.77s2.67-39.63,3.14-62c.55-22.75,1.25-44.88,2.12-66.7a732,732,0,0,1,78-10.35c-.71,19.53-1.18,39.62-1.42,60.1-.55,45.44-3.45,88.29-9.41,127.05-6.12,38.69-17.35,70.62-35.16,93.77-17.65,23.31-43.86,34.61-78.16,34.37v.4Z"/><path class="cls-1" d="M342.14,1441.68c-30.06-307.06-1.26-511,26.21-692.12A700.4,700.4,0,0,1,442,763.61c-12.48,73.76-24.4,150.9-31,238.08,27.23,3.92,54.15,9.34,81.54,15.7,4.63-84.2,16-158.91,28.48-231,23.46,7.46,46.77,15.15,70.47,22.76-28.8,171.23-45.44,350.93,20.09,633.66-28.88-.16-58-.39-86.87-.55-25.43-134.11-34.84-245.61-34.68-343.63-28.1-5.25-55.72-9.49-83.66-12.55-3,101.62,2.12,217.6,21.51,355.79H341.74Z"/><path class="cls-1" d="M688.9,1442.07c-71.41-269.15-59.87-445-33-617.57,24.8,6.59,50.31,12.4,77.06,17-22.91,175.54-28.64,349.12,43.32,601.25-29.19-.16-58.3-.55-87.34-.78Z"/><path class="cls-1" d="M856.2,1441.45C791,1203.68,792.33,1028.37,810.61,848.2c20,1.33,40.89,1.65,62.62,1.1C906,953.59,954.92,1059.92,1010,1174.56c-5.18-115.51-4.47-228.27-1.1-342.52a995,995,0,0,0,96.68-26.37v637h-58.15c-53.83-128.3-119.36-252.44-165.81-367.79,2.75,113.7,16.4,232.35,48.81,367.24-24.8,0-49.36-.39-74-.55l-.16-.15Z"/></g></g></svg>